<svg id="my-svg" width="100%" xmlns="http://www.w3.org/2000/svg" xmlns:xlink="http://www.w3.org/1999/xlink" class="flowchart" style="max-width: 548.641px; background-color: white;" viewBox="0 0 548.640625 527" role="graphics-document document" aria-roledescription="flowchart-v2"><style>#my-svg{font-family:"trebuchet ms",verdana,arial,sans-serif;font-size:16px;fill:#333;}@keyframes edge-animation-frame{from{stroke-dashoffset:0;}}@keyframes dash{to{stroke-dashoffset:0;}}#my-svg .edge-animation-slow{stroke-dasharray:9,5!important;stroke-dashoffset:900;animation:dash 50s linear infinite;stroke-linecap:round;}#my-svg .edge-animation-fast{stroke-dasharray:9,5!important;stroke-dashoffset:900;animation:dash 20s linear infinite;stroke-linecap:round;}#my-svg .error-icon{fill:#552222;}#my-svg .error-text{fill:#552222;stroke:#552222;}#my-svg .edge-thickness-normal{stroke-width:1px;}#my-svg .edge-thickness-thick{stroke-width:3.5px;}#my-svg .edge-pattern-solid{stroke-dasharray:0;}#my-svg .edge-thickness-invisible{stroke-width:0;fill:none;}#my-svg .edge-pattern-dashed{stroke-dasharray:3;}#my-svg .edge-pattern-dotted{stroke-dasharray:2;}#my-svg .marker{fill:#333333;stroke:#333333;}#my-svg .marker.cross{stroke:#333333;}#my-svg svg{font-family:"trebuchet ms",verdana,arial,sans-serif;font-size:16px;}#my-svg p{margin:0;}#my-svg .label{font-family:"trebuchet ms",verdana,arial,sans-serif;color:#333;}#my-svg .cluster-label text{fill:#333;}#my-svg .cluster-label span{color:#333;}#my-svg .cluster-label span p{background-color:transparent;}#my-svg .label text,#my-svg span{fill:#333;color:#333;}#my-svg .node rect,#my-svg .node circle,#my-svg .node ellipse,#my-svg .node polygon,#my-svg .node path{fill:#ECECFF;stroke:#9370DB;stroke-width:1px;}#my-svg .rough-node .label text,#my-svg .node .label text,#my-svg .image-shape .label,#my-svg .icon-shape .label{text-anchor:middle;}#my-svg .node .katex path{fill:#000;stroke:#000;stroke-width:1px;}#my-svg .rough-node .label,#my-svg .node .label,#my-svg .image-shape .label,#my-svg .icon-shape .label{text-align:center;}#my-svg .node.clickable{cursor:pointer;}#my-svg .root .anchor path{fill:#333333!important;stroke-width:0;stroke:#333333;}#my-svg .arrowheadPath{fill:#333333;}#my-svg .edgePath .path{stroke:#333333;stroke-width:1px;}#my-svg .flowchart-link{stroke:#333333;fill:none;}#my-svg .edgeLabel{background-color:rgba(232,232,232, 0.8);text-align:center;}#my-svg .edgeLabel p{background-color:rgba(232,232,232, 0.8);}#my-svg .edgeLabel rect{opacity:0.5;background-color:rgba(232,232,232, 0.8);fill:rgba(232,232,232, 0.8);}#my-svg .labelBkg{background-color:rgba(232, 232, 232, 0.5);}#my-svg .cluster rect{fill:#ffffde;stroke:#aaaa33;stroke-width:1px;}#my-svg .cluster text{fill:#333;}#my-svg .cluster span{color:#333;}#my-svg div.mermaidTooltip{position:absolute;text-align:center;max-width:200px;padding:2px;font-family:"trebuchet ms",verdana,arial,sans-serif;font-size:12px;background:hsl(80, 100%, 96.2745098039%);border:1px solid #aaaa33;border-radius:2px;pointer-events:none;z-index:100;}#my-svg .flowchartTitleText{text-anchor:middle;font-size:18px;fill:#333;}#my-svg rect.text{fill:none;stroke-width:0;}#my-svg .icon-shape,#my-svg .image-shape{background-color:rgba(232,232,232, 0.8);text-align:center;}#my-svg .icon-shape p,#my-svg .image-shape p{background-color:rgba(232,232,232, 0.8);padding:2px;}#my-svg .icon-shape .label rect,#my-svg .image-shape .label rect{opacity:0.5;background-color:rgba(232,232,232, 0.8);fill:rgba(232,232,232, 0.8);}#my-svg .label-icon{display:inline-block;height:1em;overflow:visible;vertical-align:-0.125em;}#my-svg .node .label-icon path{fill:currentColor;stroke:revert;stroke-width:revert;}#my-svg .node .neo-node{stroke:#9370DB;}#my-svg [data-look="neo"].node rect,#my-svg [data-look="neo"].cluster rect,#my-svg [data-look="neo"].node polygon{stroke:#9370DB;filter:drop-shadow(1px 2px 2px rgba(185, 185, 185, 1));}#my-svg [data-look="neo"].swimlane.cluster rect{filter:none;}#my-svg [data-look="neo"].node path{stroke:#9370DB;stroke-width:1px;}#my-svg [data-look="neo"].node .outer-path{filter:drop-shadow(1px 2px 2px rgba(185, 185, 185, 1));}#my-svg [data-look="neo"].node .neo-line path{stroke:#9370DB;filter:none;}#my-svg [data-look="neo"].node circle{stroke:#9370DB;filter:drop-shadow(1px 2px 2px rgba(185, 185, 185, 1));}#my-svg [data-look="neo"].node circle .state-start{fill:#000000;}#my-svg [data-look="neo"].icon-shape .icon{fill:#9370DB;filter:drop-shadow(1px 2px 2px rgba(185, 185, 185, 1));}#my-svg [data-look="neo"].icon-shape .icon-neo path{stroke:#9370DB;filter:drop-shadow(1px 2px 2px rgba(185, 185, 185, 1));}#my-svg :root{--mermaid-font-family:"trebuchet ms",verdana,arial,sans-serif;}</style><g><marker id="my-svg_flowchart-v2-pointEnd" class="marker flowchart-v2" viewBox="0 0 10 10" refX="5" refY="5" markerUnits="userSpaceOnUse" markerWidth="8" markerHeight="8" orient="auto"><path d="M 0 0 L 10 5 L 0 10 z" class="arrowMarkerPath" style="stroke-width: 1; stroke-dasharray: 1, 0;"/></marker><marker id="my-svg_flowchart-v2-pointStart" class="marker flowchart-v2" viewBox="0 0 10 10" refX="4.5" refY="5" markerUnits="userSpaceOnUse" markerWidth="8" markerHeight="8" orient="auto"><path d="M 0 5 L 10 10 L 10 0 z" class="arrowMarkerPath" style="stroke-width: 1; stroke-dasharray: 1, 0;"/></marker><marker id="my-svg_flowchart-v2-pointEnd-margin" class="marker flowchart-v2" viewBox="0 0 11.5 14" refX="11.5" refY="7" markerUnits="userSpaceOnUse" markerWidth="10.5" markerHeight="14" orient="auto"><path d="M 0 0 L 11.5 7 L 0 14 z" class="arrowMarkerPath" style="stroke-width: 0; stroke-dasharray: 1, 0;"/></marker><marker id="my-svg_flowchart-v2-pointStart-margin" class="marker flowchart-v2" viewBox="0 0 11.5 14" refX="1" refY="7" markerUnits="userSpaceOnUse" markerWidth="11.5" markerHeight="14" orient="auto"><polygon points="0,7 11.5,14 11.5,0" class="arrowMarkerPath" style="stroke-width: 0; stroke-dasharray: 1, 0;"/></marker><marker id="my-svg_flowchart-v2-circleEnd" class="marker flowchart-v2" viewBox="0 0 10 10" refX="11" refY="5" markerUnits="userSpaceOnUse" markerWidth="11" markerHeight="11" orient="auto"><circle cx="5" cy="5" r="5" class="arrowMarkerPath" style="stroke-width: 1; stroke-dasharray: 1, 0;"/></marker><marker id="my-svg_flowchart-v2-circleStart" class="marker flowchart-v2" viewBox="0 0 10 10" refX="-1" refY="5" markerUnits="userSpaceOnUse" markerWidth="11" markerHeight="11" orient="auto"><circle cx="5" cy="5" r="5" class="arrowMarkerPath" style="stroke-width: 1; stroke-dasharray: 1, 0;"/></marker><marker id="my-svg_flowchart-v2-circleEnd-margin" class="marker flowchart-v2" viewBox="0 0 10 10" refY="5" refX="12.25" markerUnits="userSpaceOnUse" markerWidth="14" markerHeight="14" orient="auto"><circle cx="5" cy="5" r="5" class="arrowMarkerPath" style="stroke-width: 0; stroke-dasharray: 1, 0;"/></marker><marker id="my-svg_flowchart-v2-circleStart-margin" class="marker flowchart-v2" viewBox="0 0 10 10" refX="-2" refY="5" markerUnits="userSpaceOnUse" markerWidth="14" markerHeight="14" orient="auto"><circle cx="5" cy="5" r="5" class="arrowMarkerPath" style="stroke-width: 0; stroke-dasharray: 1, 0;"/></marker><marker id="my-svg_flowchart-v2-crossEnd" class="marker cross flowchart-v2" viewBox="0 0 11 11" refX="12" refY="5.2" markerUnits="userSpaceOnUse" markerWidth="11" markerHeight="11" orient="auto"><path d="M 1,1 l 9,9 M 10,1 l -9,9" class="arrowMarkerPath" style="stroke-width: 2; stroke-dasharray: 1, 0;"/></marker><marker id="my-svg_flowchart-v2-crossStart" class="marker cross flowchart-v2" viewBox="0 0 11 11" refX="-1" refY="5.2" markerUnits="userSpaceOnUse" markerWidth="11" markerHeight="11" orient="auto"><path d="M 1,1 l 9,9 M 10,1 l -9,9" class="arrowMarkerPath" style="stroke-width: 2; stroke-dasharray: 1, 0;"/></marker><marker id="my-svg_flowchart-v2-crossEnd-margin" class="marker cross flowchart-v2" viewBox="0 0 15 15" refX="17.7" refY="7.5" markerUnits="userSpaceOnUse" markerWidth="12" markerHeight="12" orient="auto"><path d="M 1,1 L 14,14 M 1,14 L 14,1" class="arrowMarkerPath" style="stroke-width: 2.5;"/></marker><marker id="my-svg_flowchart-v2-crossStart-margin" class="marker cross flowchart-v2" viewBox="0 0 15 15" refX="-3.5" refY="7.5" markerUnits="userSpaceOnUse" markerWidth="12" markerHeight="12" orient="auto"><path d="M 1,1 L 14,14 M 1,14 L 14,1" class="arrowMarkerPath" style="stroke-width: 2.5; stroke-dasharray: 1, 0;"/></marker><g class="root"><g class="clusters"/><g class="edgePaths"><path d="M267.207,47.5L267.124,55.583C267.04,63.667,266.874,79.833,266.79,95.417C266.707,111,266.707,126,266.707,133.5L266.707,141" id="my-svg-L_laptops_control_0" class="edge-thickness-normal edge-pattern-solid edge-thickness-normal edge-pattern-solid flowchart-link" style=";" data-edge="true" data-et="edge" data-id="L_laptops_control_0" data-points="W3sieCI6MjY3LjIwNzAzMTI1LCJ5Ijo0Ny41fSx7IngiOjI2Ni43MDcwMzEyNSwieSI6OTZ9LHsieCI6MjY2LjcwNzAzMTI1LCJ5IjoxNDV9XQ==" data-look="classic" marker-end="url(#my-svg_flowchart-v2-pointEnd)"/><path d="M136.707,338.512L127.196,345.427C117.685,352.341,98.663,366.171,91.769,378.649C84.876,391.127,90.112,402.254,92.729,407.817L95.347,413.381" id="my-svg-L_control_macWorker_0" class="edge-thickness-normal edge-pattern-solid edge-thickness-normal edge-pattern-solid flowchart-link" style=";" data-edge="true" data-et="edge" data-id="L_control_macWorker_0" data-points="W3sieCI6MTM2LjcwNzAzMTI1LCJ5IjozMzguNTExODkyMDgzNzc3MDd9LHsieCI6NzkuNjQwNjI1LCJ5IjozODB9LHsieCI6OTcuMDUwMDcxMDIyNzI3MjgsInkiOjQxN31d" data-look="classic" marker-end="url(#my-svg_flowchart-v2-pointEnd)"/><path d="M170.467,417L176.442,410.833C182.418,404.667,194.369,392.333,202.812,380.609C211.255,368.885,216.191,357.771,218.658,352.213L221.126,346.656" id="my-svg-L_macWorker_control_0" class="edge-thickness-normal edge-pattern-solid edge-thickness-normal edge-pattern-solid flowchart-link" style=";" data-edge="true" data-et="edge" data-id="L_macWorker_control_0" data-points="W3sieCI6MTcwLjQ2NjcwODA5NjU5MDksInkiOjQxN30seyJ4IjoyMDYuMzIwMzEyNSwieSI6MzgwfSx7IngiOjIyMi43NDkwNTIxNTk5MjY0NiwieSI6MzQzfV0=" data-look="classic" marker-end="url(#my-svg_flowchart-v2-pointEnd)"/><path d="M310.665,343L313.403,349.167C316.141,355.333,321.618,367.667,331.805,381.521C341.993,395.376,356.893,410.752,364.342,418.44L371.792,426.127" id="my-svg-L_control_webWorker_0" class="edge-thickness-normal edge-pattern-solid edge-thickness-normal edge-pattern-solid flowchart-link" style=";" data-edge="true" data-et="edge" data-id="L_control_webWorker_0" data-points="W3sieCI6MzEwLjY2NTAxMDM0MDA3MzU0LCJ5IjozNDN9LHsieCI6MzI3LjA5Mzc1LCJ5IjozODB9LHsieCI6Mzc0LjU3NTU1MDQyNjEzNjQsInkiOjQyOX1d" data-look="classic" marker-end="url(#my-svg_flowchart-v2-pointEnd)"/><path d="M439.129,429L444.734,420.833C450.338,412.667,461.546,396.333,455.032,380.168C448.518,364.003,424.282,348.006,412.163,340.008L400.045,332.009" id="my-svg-L_webWorker_control_0" class="edge-thickness-normal edge-pattern-solid edge-thickness-normal edge-pattern-solid flowchart-link" style=";" data-edge="true" data-et="edge" data-id="L_webWorker_control_0" data-points="W3sieCI6NDM5LjEyOTQ4MzMwOTY1OTA3LCJ5Ijo0Mjl9LHsieCI6NDcyLjc1MzkwNjI1LCJ5IjozODB9LHsieCI6Mzk2LjcwNzAzMTI1LCJ5IjozMjkuODA1NzE3NzUyMzMxOH1d" data-look="classic" marker-end="url(#my-svg_flowchart-v2-pointEnd)"/></g><g class="edgeLabels"><g class="edgeLabel" transform="translate(266.70703125, 96)"><g class="label" data-id="L_laptops_control_0" transform="translate(-88.0703125, -24)"><foreignObject width="176.140625" height="48"><div xmlns="http://www.w3.org/1999/xhtml" class="labelBkg" style="display: table-cell; white-space: nowrap; line-height: 1.5; max-width: 200px; text-align: center;"><span class="edgeLabel"><p>HTTPS (Tailscale tailnet,<br />or Caddy at a hostname)</p></span></div></foreignObject></g></g><g class="edgeLabel" transform="translate(91.63671, 371.27867)"><g class="label" data-id="L_control_macWorker_0" transform="translate(-42.1953125, -12)"><foreignObject width="84.390625" height="24"><div xmlns="http://www.w3.org/1999/xhtml" class="labelBkg" style="display: table-cell; white-space: nowrap; line-height: 1.5; max-width: 200px; text-align: center;"><span class="edgeLabel"><p>jobs (HTTP)</p></span></div></foreignObject></g></g><g class="edgeLabel" transform="translate(202.47958, 383.96354)"><g class="label" data-id="L_macWorker_control_0" transform="translate(-20.6171875, -12)"><foreignObject width="41.234375" height="24"><div xmlns="http://www.w3.org/1999/xhtml" class="labelBkg" style="display: table-cell; white-space: nowrap; line-height: 1.5; max-width: 200px; text-align: center;"><span class="edgeLabel"><p>result</p></span></div></foreignObject></g></g><g class="edgeLabel" transform="translate(336.74858, 389.96354)"><g class="label" data-id="L_control_webWorker_0" transform="translate(-80.15625, -12)"><foreignObject width="160.3125" height="24"><div xmlns="http://www.w3.org/1999/xhtml" class="labelBkg" style="display: table-cell; white-space: nowrap; line-height: 1.5; max-width: 200px; text-align: center;"><span class="edgeLabel"><p>jobs (Tailscale tailnet)</p></span></div></foreignObject></g></g><g class="edgeLabel" transform="translate(472.75390625, 380)"><g class="label" data-id="L_webWorker_control_0" transform="translate(-20.6171875, -12)"><foreignObject width="41.234375" height="24"><div xmlns="http://www.w3.org/1999/xhtml" class="labelBkg" style="display: table-cell; white-space: nowrap; line-height: 1.5; max-width: 200px; text-align: center;"><span class="edgeLabel"><p>result</p></span></div></foreignObject></g></g></g><g class="nodes"><g class="node default" id="my-svg-flowchart-laptops-0" data-look="classic" transform="translate(266.70703125, 27.5)"><g class="basic label-container outer-path"><path d="M-39.84375 -19.5 C-16.003803109054132 -19.5, 7.836143781891735 -19.5, 39.84375 -19.5 C39.84375 -19.5, 39.84375 -19.5, 39.84375 -19.5 C40.29121454804404 -19.485650682881133, 40.738679096088084 -19.47130136576227, 41.0931192896239 -19.45993515863156 C41.560070354399116 -19.414888951003512, 42.02702141917434 -19.369842743375465, 42.337354652847864 -19.3399052695533 C42.65620016547966 -19.288356799754872, 42.97504567811146 -19.236808329956443, 43.57134325967676 -19.140403561325776 C43.9812340069352 -19.046848673051134, 44.39112475419364 -18.95329378477649, 44.79001438623539 -18.862249829261074 C45.03084072819156 -18.79077383509175, 45.27166707014774 -18.71929784092242, 45.988360251460605 -18.50658706670804 C46.456139755891826 -18.33443988497101, 46.923919260323046 -18.162292703233987, 47.1614565951478 -18.074876768247425 C47.58793319545459 -17.886088228270467, 48.01440979576138 -17.69729968829351, 48.30448291279238 -17.568892924097174 C48.6685261099068 -17.37897182134338, 49.03256930702122 -17.189050718589584, 49.41274226407678 -16.990714730406097 C49.727011601002395 -16.800202811510168, 50.041280937928015 -16.60969089261424, 50.4816805736057 -16.342718045390892 C50.68988719138023 -16.1974821219506, 50.89809380915475 -16.052246198510307, 51.50690534457871 -15.627565626425154 C51.719544747262134 -15.457991361357273, 51.93218414994556 -15.28841709628939, 52.484203708501866 -14.848196188198123 C52.74000731712032 -14.61588211904344, 52.99581092573878 -14.383568049888757, 53.40955973676799 -14.007812326905688 C53.648869861126066 -13.760704975779367, 53.888179985484136 -13.513597624653046, 54.27917094296865 -13.10986736009568 C54.521538181628614 -12.825169010479122, 54.76390542028858 -12.540470660862564, 55.08946390812658 -12.158051136245305 C55.250910562390644 -11.941727327624244, 55.4123572166547 -11.725403519003184, 55.837108964640635 -11.156274872382312 C56.03627448160187 -10.85030315490016, 56.23543999856311 -10.544331437418007, 56.51903387860425 -10.108655082055241 C56.65615973082791 -9.865174245933906, 56.79328558305156 -9.62169340981257, 57.132436474273504 -9.019496659696287 C57.25985633006404 -8.754906602799077, 57.387276185854574 -8.490316545901864, 57.67479614880834 -7.893275190886684 C57.7997027452923 -7.584753482666551, 57.924609341776254 -7.276231774446418, 58.143884229970325 -6.734618561215508 C58.253633497081985 -6.40407125484624, 58.36338276419364 -6.073523948476972, 58.53777313421488 -5.548287939305138 C58.657140054438315 -5.093090138542712, 58.77650697466175 -4.637892337780285, 58.85484428754556 -4.339158212148133 C58.9063461652854 -4.074706954879792, 58.95784804302523 -3.8102556976114514, 59.093794776581774 -3.1121979531509023 C59.13969575290339 -2.7561990449734273, 59.18559672922501 -2.4002001367959522, 59.25364270250937 -1.872449005199798 C59.27128408626579 -1.5976702133249332, 59.2889254700222 -1.3228914214500684, 59.33373121591342 -0.6250057626472757 C59.33373121591342 -0.14373335469134663, 59.33373121591342 0.33753905326458244, 59.33373121591342 0.625005762647271 C59.315097041810034 0.9152480655420353, 59.29646286770666 1.2054903684367995, 59.25364270250937 1.8724490051997846 C59.19270404322725 2.345077212892456, 59.131765383945144 2.8177054205851277, 59.093794776581774 3.1121979531508885 C59.00121723575765 3.5875640590125784, 58.908639694933534 4.062930164874268, 58.85484428754556 4.339158212148129 C58.7500399438209 4.738822597260159, 58.64523560009624 5.13848698237219, 58.53777313421489 5.548287939305125 C58.388473389926446 5.997954981418091, 58.239173645638 6.447622023531057, 58.143884229970325 6.734618561215495 C58.03484261794763 7.003953451087701, 57.92580100592494 7.2732883409599065, 57.67479614880834 7.893275190886679 C57.51030519009988 8.234844186187496, 57.34581423139142 8.576413181488313, 57.132436474273504 9.019496659696284 C56.98740617432518 9.277012643164886, 56.842375874376856 9.53452862663349, 56.51903387860425 10.108655082055236 C56.354387941942974 10.361595454391436, 56.1897420052817 10.614535826727636, 55.83710896464064 11.156274872382301 C55.63801724572759 11.423039638097078, 55.43892552681453 11.689804403811854, 55.08946390812658 12.158051136245302 C54.79409075137865 12.505013253370175, 54.49871759463071 12.851975370495046, 54.27917094296866 13.10986736009567 C53.933681438466856 13.466613638709624, 53.58819193396505 13.823359917323579, 53.40955973676799 14.007812326905684 C53.13809886631551 14.254345906989581, 52.86663799586303 14.50087948707348, 52.48420370850189 14.848196188198111 C52.23417040030794 15.047591097817016, 51.98413709211399 15.246986007435922, 51.50690534457871 15.627565626425152 C51.186171833837854 15.851295439188073, 50.865438323096996 16.075025251950994, 50.48168057360571 16.34271804539089 C50.217847887494905 16.502654970164215, 49.95401520138411 16.662591894937545, 49.41274226407678 16.990714730406093 C49.05279879926649 17.178497005442832, 48.6928553344562 17.36627928047957, 48.30448291279239 17.56889292409717 C47.895103510654685 17.750113041615037, 47.48572410851698 17.931333159132905, 47.161456595147804 18.07487676824742 C46.82090456902224 18.200203061890047, 46.480352542896675 18.325529355532677, 45.98836025146062 18.506587066708033 C45.5116271991171 18.64807893422073, 45.03489414677359 18.789570801733433, 44.79001438623541 18.86224982926107 C44.45331973774191 18.939098185641797, 44.11662508924841 19.015946542022526, 43.571343259676766 19.140403561325773 C43.29049149467622 19.185809496653096, 43.00963972967567 19.231215431980416, 42.33735465284788 19.3399052695533 C41.893156753765986 19.382756506651596, 41.448958854684086 19.425607743749893, 41.0931192896239 19.45993515863156 C40.67072265756734 19.473480596476445, 40.248326025510785 19.48702603432133, 39.84375000000001 19.5 C39.84375000000001 19.5, 39.84375 19.5, 39.84375 19.5 C8.015286893712883 19.5, -23.813176212574234 19.5, -39.84374999999999 19.5 C-40.24633722963945 19.487089811133966, -40.64892445927891 19.474179622267936, -41.09311928962389 19.45993515863156 C-41.45363489001391 19.42515665224538, -41.814150490403925 19.3903781458592, -42.33735465284787 19.3399052695533 C-42.74779882489162 19.273547838859358, -43.158242996935364 19.207190408165417, -43.57134325967676 19.140403561325773 C-43.82173783683344 19.08325263306708, -44.07213241399012 19.026101704808386, -44.790014386235384 18.862249829261074 C-45.138094283402395 18.75894154289057, -45.486174180569414 18.655633256520066, -45.98836025146059 18.506587066708043 C-46.392363176970974 18.357910255558117, -46.79636610248136 18.20923344440819, -47.1614565951478 18.074876768247425 C-47.60491925574314 17.8785690032543, -48.04838191633849 17.682261238261173, -48.30448291279238 17.568892924097174 C-48.5441636557044 17.443851634042815, -48.78384439861643 17.318810343988456, -49.41274226407678 16.990714730406097 C-49.75315333889192 16.784355536375635, -50.09356441370706 16.57799634234517, -50.481680573605686 16.3427180453909 C-50.89050895540309 16.05753706414444, -51.29933733720049 15.772356082897982, -51.50690534457871 15.627565626425156 C-51.809838794885195 15.385984261203404, -52.11277224519168 15.144402895981653, -52.484203708501866 14.848196188198125 C-52.84753556159388 14.518227812454002, -53.21086741468589 14.18825943670988, -53.409559736767974 14.007812326905697 C-53.71719467974034 13.690153990988192, -54.0248296227127 13.372495655070688, -54.279170942968655 13.109867360095677 C-54.49789687547542 12.852939433915093, -54.71662280798218 12.59601150773451, -55.089463908126575 12.158051136245307 C-55.37583062107897 11.774345829433345, -55.66219733403136 11.390640522621384, -55.837108964640635 11.156274872382316 C-56.01054830363731 10.8898254726998, -56.18398764263397 10.623376073017283, -56.51903387860425 10.108655082055249 C-56.66206688672801 9.854685492468871, -56.805099894851786 9.600715902882493, -57.132436474273504 9.019496659696289 C-57.29843795073267 8.674791041966227, -57.46443942719184 8.330085424236165, -57.67479614880834 7.893275190886686 C-57.77494350801792 7.645909277421554, -57.8750908672275 7.398543363956421, -58.143884229970325 6.73461856121551 C-58.28158486018336 6.319886202629826, -58.41928549039638 5.905153844044142, -58.53777313421488 5.5482879393051325 C-58.622668294477 5.224545899430465, -58.70756345473912 4.900803859555799, -58.85484428754556 4.339158212148136 C-58.91494046929418 4.0305770202014966, -58.97503665104279 3.7219958282548578, -59.093794776581774 3.112197953150904 C-59.14870738830315 2.686306580361617, -59.20362000002453 2.26041520757233, -59.25364270250937 1.872449005199809 C-59.28122818898536 1.442782786732375, -59.308813675461344 1.0131165682649408, -59.33373121591342 0.6250057626472781 C-59.33373121591342 0.36910865385175945, -59.33373121591342 0.11321154505624076, -59.33373121591342 -0.6250057626472687 C-59.31713773914226 -0.8834625573713546, -59.30054426237111 -1.1419193520954405, -59.25364270250937 -1.8724490051997822 C-59.21455617262712 -2.175596412458167, -59.175469642744865 -2.4787438197165517, -59.093794776581774 -3.112197953150895 C-59.028657922423 -3.446661932577199, -58.96352106826423 -3.7811259120035032, -58.85484428754556 -4.339158212148126 C-58.7417552314785 -4.77041579603877, -58.62866617541144 -5.201673379929414, -58.53777313421489 -5.548287939305123 C-58.456782208762476 -5.792219702616226, -58.37579128331007 -6.036151465927328, -58.14388422997033 -6.734618561215485 C-57.97326168445529 -7.156059547400155, -57.802639138940236 -7.577500533584825, -57.67479614880834 -7.893275190886676 C-57.541560401843 -8.16994207024851, -57.40832465487765 -8.446608949610344, -57.132436474273504 -9.019496659696282 C-56.90399209067433 -9.425122795278858, -56.675547707075154 -9.830748930861434, -56.51903387860425 -10.108655082055243 C-56.34083696750705 -10.382413390071159, -56.162640056409856 -10.656171698087073, -55.83710896464064 -11.156274872382308 C-55.64728834500321 -11.410617209682265, -55.45746772536578 -11.664959546982221, -55.08946390812659 -12.158051136245302 C-54.86728688124063 -12.419032914256517, -54.64510985435467 -12.680014692267733, -54.27917094296866 -13.10986736009567 C-54.005025418515196 -13.392945121860016, -53.73087989406173 -13.676022883624364, -53.409559736767996 -14.007812326905677 C-53.147185294105604 -14.24609385368432, -52.88481085144321 -14.48437538046296, -52.48420370850189 -14.848196188198107 C-52.10007898053162 -15.154525436766088, -51.71595425256135 -15.460854685334068, -51.50690534457872 -15.627565626425149 C-51.22961310641904 -15.820992687977823, -50.95232086825935 -16.014419749530497, -50.481680573605715 -16.342718045390885 C-50.22513893622119 -16.49823509357939, -49.96859729883666 -16.65375214176789, -49.41274226407679 -16.99071473040609 C-48.97999597113081 -17.21647819424878, -48.54724967818483 -17.44224165809147, -48.30448291279239 -17.56889292409717 C-47.8772047908457 -17.758036273927814, -47.44992666889902 -17.947179623758462, -47.161456595147804 -18.07487676824742 C-46.86307350236805 -18.184684504613443, -46.5646904095883 -18.294492240979466, -45.98836025146062 -18.506587066708033 C-45.536377509132514 -18.640733172125188, -45.08439476680441 -18.77487927754234, -44.79001438623541 -18.862249829261067 C-44.41576411356096 -18.947670011787746, -44.041513840886516 -19.033090194314422, -43.571343259676766 -19.140403561325773 C-43.07954623653151 -19.21991349008502, -42.58774921338627 -19.29942341884427, -42.33735465284788 -19.3399052695533 C-41.886673011782975 -19.383381985442856, -41.43599137071807 -19.426858701332414, -41.0931192896239 -19.45993515863156 C-40.71946209593037 -19.471917617553704, -40.345804902236836 -19.483900076475848, -39.84375000000001 -19.5 C-39.84375000000001 -19.5, -39.84375 -19.5, -39.84375 -19.5" stroke="none" stroke-width="0" fill="#ECECFF" style=""/><path d="M-39.84375 -19.5 C-21.05966744452071 -19.5, -2.2755848890414185 -19.5, 39.84375 -19.5 M-39.84375 -19.5 C-9.15205565255986 -19.5, 21.53963869488028 -19.5, 39.84375 -19.5 M39.84375 -19.5 C39.84375 -19.5, 39.84375 -19.5, 39.84375 -19.5 M39.84375 -19.5 C39.84375 -19.5, 39.84375 -19.5, 39.84375 -19.5 M39.84375 -19.5 C40.18285039784895 -19.489125710259867, 40.521950795697904 -19.478251420519737, 41.0931192896239 -19.45993515863156 M39.84375 -19.5 C40.110388717710194 -19.491449415303812, 40.377027435420395 -19.482898830607628, 41.0931192896239 -19.45993515863156 M41.0931192896239 -19.45993515863156 C41.38532025156338 -19.431746883256327, 41.677521213502864 -19.4035586078811, 42.337354652847864 -19.3399052695533 M41.0931192896239 -19.45993515863156 C41.392582118637016 -19.431046339673408, 41.69204494765014 -19.402157520715257, 42.337354652847864 -19.3399052695533 M42.337354652847864 -19.3399052695533 C42.78331958751596 -19.267805117425883, 43.22928452218407 -19.195704965298468, 43.57134325967676 -19.140403561325776 M42.337354652847864 -19.3399052695533 C42.58617331681022 -19.299678197581425, 42.834991980772564 -19.25945112560955, 43.57134325967676 -19.140403561325776 M43.57134325967676 -19.140403561325776 C43.849634417454496 -19.076885420582528, 44.12792557523224 -19.01336727983928, 44.79001438623539 -18.862249829261074 M43.57134325967676 -19.140403561325776 C43.831796313879146 -19.080956851319097, 44.09224936808153 -19.02151014131242, 44.79001438623539 -18.862249829261074 M44.79001438623539 -18.862249829261074 C45.06207036005525 -18.781505044282287, 45.33412633387512 -18.7007602593035, 45.988360251460605 -18.50658706670804 M44.79001438623539 -18.862249829261074 C45.04036372974161 -18.787947458218948, 45.29071307324783 -18.713645087176825, 45.988360251460605 -18.50658706670804 M45.988360251460605 -18.50658706670804 C46.293346104201476 -18.39434945364108, 46.598331956942346 -18.28211184057412, 47.1614565951478 -18.074876768247425 M45.988360251460605 -18.50658706670804 C46.331721077791144 -18.380227108625718, 46.67508190412168 -18.253867150543392, 47.1614565951478 -18.074876768247425 M47.1614565951478 -18.074876768247425 C47.61441858846738 -17.87436393044497, 48.06738058178696 -17.67385109264252, 48.30448291279238 -17.568892924097174 M47.1614565951478 -18.074876768247425 C47.59217185596135 -17.88421189899952, 48.022887116774896 -17.693547029751617, 48.30448291279238 -17.568892924097174 M48.30448291279238 -17.568892924097174 C48.68273039039956 -17.37156145730858, 49.06097786800674 -17.17422999051999, 49.41274226407678 -16.990714730406097 M48.30448291279238 -17.568892924097174 C48.69422673461511 -17.36556382189509, 49.08397055643783 -17.162234719693007, 49.41274226407678 -16.990714730406097 M49.41274226407678 -16.990714730406097 C49.69808367840525 -16.817739088187906, 49.983425092733704 -16.644763445969712, 50.4816805736057 -16.342718045390892 M49.41274226407678 -16.990714730406097 C49.732614721505854 -16.79680616693338, 50.052487178934925 -16.602897603460665, 50.4816805736057 -16.342718045390892 M50.4816805736057 -16.342718045390892 C50.878261005444024 -16.06608070383068, 51.27484143728235 -15.789443362270461, 51.50690534457871 -15.627565626425154 M50.4816805736057 -16.342718045390892 C50.82103730127862 -16.105997482682234, 51.160394028951536 -15.869276919973577, 51.50690534457871 -15.627565626425154 M51.50690534457871 -15.627565626425154 C51.762384346538205 -15.423827920944222, 52.0178633484977 -15.220090215463287, 52.484203708501866 -14.848196188198123 M51.50690534457871 -15.627565626425154 C51.86011679916306 -15.345888890745691, 52.213328253747406 -15.06421215506623, 52.484203708501866 -14.848196188198123 M52.484203708501866 -14.848196188198123 C52.73762223905252 -14.61804818383891, 52.99104076960318 -14.387900179479697, 53.40955973676799 -14.007812326905688 M52.484203708501866 -14.848196188198123 C52.68535209915354 -14.665518541903047, 52.88650048980522 -14.482840895607971, 53.40955973676799 -14.007812326905688 M53.40955973676799 -14.007812326905688 C53.629927990963886 -13.780264011878277, 53.85029624515978 -13.552715696850864, 54.27917094296865 -13.10986736009568 M53.40955973676799 -14.007812326905688 C53.74354577763194 -13.662944318949751, 54.07753181849588 -13.318076310993815, 54.27917094296865 -13.10986736009568 M54.27917094296865 -13.10986736009568 C54.56631896535509 -12.772566953815229, 54.85346698774153 -12.435266547534779, 55.08946390812658 -12.158051136245305 M54.27917094296865 -13.10986736009568 C54.458598756346454 -12.899101240770298, 54.63802656972427 -12.688335121444915, 55.08946390812658 -12.158051136245305 M55.08946390812658 -12.158051136245305 C55.35973903550612 -11.795907088127363, 55.63001416288566 -11.43376304000942, 55.837108964640635 -11.156274872382312 M55.08946390812658 -12.158051136245305 C55.35738809807679 -11.799057130107856, 55.625312288027 -11.440063123970408, 55.837108964640635 -11.156274872382312 M55.837108964640635 -11.156274872382312 C56.10417489164922 -10.745989891254357, 56.37124081865781 -10.335704910126404, 56.51903387860425 -10.108655082055241 M55.837108964640635 -11.156274872382312 C56.09549885256645 -10.759318617128194, 56.35388874049227 -10.362362361874078, 56.51903387860425 -10.108655082055241 M56.51903387860425 -10.108655082055241 C56.760410969136565 -9.680065615734287, 57.00178805966888 -9.251476149413335, 57.132436474273504 -9.019496659696287 M56.51903387860425 -10.108655082055241 C56.749010342171815 -9.700308583348862, 56.97898680573939 -9.291962084642485, 57.132436474273504 -9.019496659696287 M57.132436474273504 -9.019496659696287 C57.278679913095765 -8.715819029873547, 57.424923351918025 -8.412141400050807, 57.67479614880834 -7.893275190886684 M57.132436474273504 -9.019496659696287 C57.250067173253605 -8.775233996370341, 57.36769787223371 -8.530971333044393, 57.67479614880834 -7.893275190886684 M57.67479614880834 -7.893275190886684 C57.77293109056298 -7.650879987442702, 57.871066032317614 -7.40848478399872, 58.143884229970325 -6.734618561215508 M57.67479614880834 -7.893275190886684 C57.79979908861783 -7.584515512789809, 57.92480202842732 -7.2757558346929345, 58.143884229970325 -6.734618561215508 M58.143884229970325 -6.734618561215508 C58.29981451106748 -6.264981398667265, 58.45574479216464 -5.795344236119021, 58.53777313421488 -5.548287939305138 M58.143884229970325 -6.734618561215508 C58.29472949349771 -6.280296661399889, 58.4455747570251 -5.825974761584271, 58.53777313421488 -5.548287939305138 M58.53777313421488 -5.548287939305138 C58.66404344019369 -5.0667645367111565, 58.790313746172494 -4.585241134117174, 58.85484428754556 -4.339158212148133 M58.53777313421488 -5.548287939305138 C58.62781990323887 -5.204900582500091, 58.717866672262865 -4.8615132256950435, 58.85484428754556 -4.339158212148133 M58.85484428754556 -4.339158212148133 C58.94812896706995 -3.8601610985144115, 59.04141364659433 -3.3811639848806894, 59.093794776581774 -3.1121979531509023 M58.85484428754556 -4.339158212148133 C58.915722899212334 -4.026559407938382, 58.97660151087911 -3.7139606037286317, 59.093794776581774 -3.1121979531509023 M59.093794776581774 -3.1121979531509023 C59.146294769172854 -2.705018377910669, 59.19879476176393 -2.297838802670436, 59.25364270250937 -1.872449005199798 M59.093794776581774 -3.1121979531509023 C59.1288703399577 -2.8401588100606223, 59.163945903333634 -2.5681196669703423, 59.25364270250937 -1.872449005199798 M59.25364270250937 -1.872449005199798 C59.28124419784663 -1.4425334357958808, 59.3088456931839 -1.0126178663919636, 59.33373121591342 -0.6250057626472757 M59.25364270250937 -1.872449005199798 C59.28146636771907 -1.439072960700404, 59.309290032928764 -1.0056969162010099, 59.33373121591342 -0.6250057626472757 M59.33373121591342 -0.6250057626472757 C59.33373121591342 -0.2633342260228381, 59.33373121591342 0.09833731060159945, 59.33373121591342 0.625005762647271 M59.33373121591342 -0.6250057626472757 C59.33373121591342 -0.1766516140426475, 59.33373121591342 0.2717025345619807, 59.33373121591342 0.625005762647271 M59.33373121591342 0.625005762647271 C59.305369718430235 1.0667589789365182, 59.27700822094705 1.5085121952257652, 59.25364270250937 1.8724490051997846 M59.33373121591342 0.625005762647271 C59.31468662024368 0.9216407127243791, 59.29564202457394 1.2182756628014872, 59.25364270250937 1.8724490051997846 M59.25364270250937 1.8724490051997846 C59.20694831600332 2.2346014460911254, 59.16025392949727 2.5967538869824667, 59.093794776581774 3.1121979531508885 M59.25364270250937 1.8724490051997846 C59.19733432054903 2.309165696336435, 59.1410259385887 2.7458823874730856, 59.093794776581774 3.1121979531508885 M59.093794776581774 3.1121979531508885 C59.04505658596186 3.362458261163937, 58.99631839534194 3.6127185691769848, 58.85484428754556 4.339158212148129 M59.093794776581774 3.1121979531508885 C59.02049424902399 3.4885806700881195, 58.94719372146621 3.8649633870253504, 58.85484428754556 4.339158212148129 M58.85484428754556 4.339158212148129 C58.77770581369746 4.633320644956995, 58.70056733984936 4.927483077765861, 58.53777313421489 5.548287939305125 M58.85484428754556 4.339158212148129 C58.770665983308284 4.660166569312715, 58.686487679071 4.9811749264773, 58.53777313421489 5.548287939305125 M58.53777313421489 5.548287939305125 C58.44457719582489 5.8289792569795145, 58.35138125743489 6.1096705746539035, 58.143884229970325 6.734618561215495 M58.53777313421489 5.548287939305125 C58.418467729333145 5.907616810074091, 58.29916232445141 6.266945680843056, 58.143884229970325 6.734618561215495 M58.143884229970325 6.734618561215495 C58.02601039566144 7.025769210893992, 57.908136561352556 7.316919860572491, 57.67479614880834 7.893275190886679 M58.143884229970325 6.734618561215495 C57.96793086862582 7.169226765563236, 57.79197750728132 7.603834969910976, 57.67479614880834 7.893275190886679 M57.67479614880834 7.893275190886679 C57.49342452805152 8.26989724211922, 57.31205290729471 8.646519293351759, 57.132436474273504 9.019496659696284 M57.67479614880834 7.893275190886679 C57.560671043565854 8.130258413808768, 57.446545938323375 8.367241636730856, 57.132436474273504 9.019496659696284 M57.132436474273504 9.019496659696284 C56.92413366450747 9.389359391382598, 56.71583085474144 9.759222123068913, 56.51903387860425 10.108655082055236 M57.132436474273504 9.019496659696284 C56.986169921012674 9.279207736105459, 56.83990336775185 9.538918812514632, 56.51903387860425 10.108655082055236 M56.51903387860425 10.108655082055236 C56.31475211193547 10.422486732993585, 56.110470345266684 10.736318383931934, 55.83710896464064 11.156274872382301 M56.51903387860425 10.108655082055236 C56.33805207767826 10.386691728695794, 56.157070276752286 10.664728375336352, 55.83710896464064 11.156274872382301 M55.83710896464064 11.156274872382301 C55.54906494437741 11.542227618184945, 55.261020924114185 11.928180363987591, 55.08946390812658 12.158051136245302 M55.83710896464064 11.156274872382301 C55.5768559214424 11.504990240727954, 55.31660287824417 11.853705609073607, 55.08946390812658 12.158051136245302 M55.08946390812658 12.158051136245302 C54.87140347039079 12.414197334400175, 54.653343032655 12.670343532555046, 54.27917094296866 13.10986736009567 M55.08946390812658 12.158051136245302 C54.77401439794919 12.528596080485293, 54.458564887771786 12.899141024725285, 54.27917094296866 13.10986736009567 M54.27917094296866 13.10986736009567 C54.06294582371097 13.333137548141679, 53.846720704453276 13.556407736187687, 53.40955973676799 14.007812326905684 M54.27917094296866 13.10986736009567 C54.0832292504568 13.312193244726299, 53.887287557944944 13.514519129356929, 53.40955973676799 14.007812326905684 M53.40955973676799 14.007812326905684 C53.18364019574382 14.212986476560339, 52.957720654719644 14.418160626214993, 52.48420370850189 14.848196188198111 M53.40955973676799 14.007812326905684 C53.121487162725096 14.269432216668806, 52.833414588682196 14.531052106431925, 52.48420370850189 14.848196188198111 M52.48420370850189 14.848196188198111 C52.11013896956445 15.146502863219958, 51.73607423062702 15.444809538241802, 51.50690534457871 15.627565626425152 M52.48420370850189 14.848196188198111 C52.227700211714264 15.052750901041524, 51.97119671492664 15.257305613884936, 51.50690534457871 15.627565626425152 M51.50690534457871 15.627565626425152 C51.23204691139661 15.819294970983185, 50.95718847821451 16.011024315541217, 50.48168057360571 16.34271804539089 M51.50690534457871 15.627565626425152 C51.19914632356929 15.842244996808034, 50.891387302559856 16.056924367190916, 50.48168057360571 16.34271804539089 M50.48168057360571 16.34271804539089 C50.186856195531355 16.521442315959916, 49.89203181745701 16.700166586528947, 49.41274226407678 16.990714730406093 M50.48168057360571 16.34271804539089 C50.21111884727577 16.506734153889287, 49.94055712094583 16.670750262387685, 49.41274226407678 16.990714730406093 M49.41274226407678 16.990714730406093 C49.127299344038406 17.1396301189552, 48.84185642400002 17.288545507504306, 48.30448291279239 17.56889292409717 M49.41274226407678 16.990714730406093 C49.04823193715231 17.18087953448258, 48.68372161022784 17.371044338559074, 48.30448291279239 17.56889292409717 M48.30448291279239 17.56889292409717 C47.95972706635205 17.721506110497483, 47.614971219911716 17.874119296897792, 47.161456595147804 18.07487676824742 M48.30448291279239 17.56889292409717 C47.93616092760447 17.73193814105637, 47.56783894241654 17.89498335801557, 47.161456595147804 18.07487676824742 M47.161456595147804 18.07487676824742 C46.923746075563386 18.162356436826443, 46.68603555597896 18.249836105405464, 45.98836025146062 18.506587066708033 M47.161456595147804 18.07487676824742 C46.845540836499666 18.191136687723198, 46.52962507785153 18.30739660719897, 45.98836025146062 18.506587066708033 M45.98836025146062 18.506587066708033 C45.64018830012106 18.609922674273747, 45.2920163487815 18.713258281839465, 44.79001438623541 18.86224982926107 M45.98836025146062 18.506587066708033 C45.588460690050574 18.6252751574189, 45.188561128640536 18.74396324812977, 44.79001438623541 18.86224982926107 M44.79001438623541 18.86224982926107 C44.50438017511489 18.927443974011908, 44.21874596399436 18.99263811876275, 43.571343259676766 19.140403561325773 M44.79001438623541 18.86224982926107 C44.3645272791938 18.95936448488046, 43.9390401721522 19.05647914049985, 43.571343259676766 19.140403561325773 M43.571343259676766 19.140403561325773 C43.14883661582102 19.20871115891641, 42.72632997196527 19.27701875650705, 42.33735465284788 19.3399052695533 M43.571343259676766 19.140403561325773 C43.080829653198855 19.21970599723129, 42.590316046720936 19.29900843313681, 42.33735465284788 19.3399052695533 M42.33735465284788 19.3399052695533 C41.941242657892474 19.378117717312275, 41.54513066293706 19.416330165071248, 41.0931192896239 19.45993515863156 M42.33735465284788 19.3399052695533 C42.079415991830814 19.36478830196499, 41.82147733081375 19.38967133437668, 41.0931192896239 19.45993515863156 M41.0931192896239 19.45993515863156 C40.829831817872474 19.468378275392652, 40.56654434612105 19.476821392153745, 39.84375000000001 19.5 M41.0931192896239 19.45993515863156 C40.77598685736393 19.470104978473305, 40.458854425103965 19.480274798315047, 39.84375000000001 19.5 M39.84375000000001 19.5 C39.84375000000001 19.5, 39.84375 19.5, 39.84375 19.5 M39.84375000000001 19.5 C39.84375000000001 19.5, 39.84375 19.5, 39.84375 19.5 M39.84375 19.5 C11.791651988943997 19.5, -16.260446022112006 19.5, -39.84374999999999 19.5 M39.84375 19.5 C16.85613195605378 19.5, -6.131486087892441 19.5, -39.84374999999999 19.5 M-39.84374999999999 19.5 C-40.169340785846295 19.48955893722193, -40.494931571692604 19.479117874443855, -41.09311928962389 19.45993515863156 M-39.84374999999999 19.5 C-40.174554942865704 19.489391729355056, -40.50535988573142 19.47878345871011, -41.09311928962389 19.45993515863156 M-41.09311928962389 19.45993515863156 C-41.394079487365445 19.430901890313027, -41.695039685107 19.401868621994492, -42.33735465284787 19.3399052695533 M-41.09311928962389 19.45993515863156 C-41.57810724104469 19.413148954241343, -42.06309519246549 19.366362749851127, -42.33735465284787 19.3399052695533 M-42.33735465284787 19.3399052695533 C-42.81013770979371 19.26346937139366, -43.282920766739544 19.187033473234024, -43.57134325967676 19.140403561325773 M-42.33735465284787 19.3399052695533 C-42.75645800470341 19.272147889820328, -43.17556135655896 19.20439051008736, -43.57134325967676 19.140403561325773 M-43.57134325967676 19.140403561325773 C-43.96876834940806 19.049693878035683, -44.36619343913936 18.958984194745597, -44.790014386235384 18.862249829261074 M-43.57134325967676 19.140403561325773 C-43.94437972224073 19.05526042303596, -44.317416184804706 18.97011728474615, -44.790014386235384 18.862249829261074 M-44.790014386235384 18.862249829261074 C-45.2651040113746 18.721245722316088, -45.74019363651382 18.5802416153711, -45.98836025146059 18.506587066708043 M-44.790014386235384 18.862249829261074 C-45.15231559526502 18.75472073217893, -45.51461680429466 18.647191635096792, -45.98836025146059 18.506587066708043 M-45.98836025146059 18.506587066708043 C-46.425357580611276 18.345768010021562, -46.86235490976196 18.184948953335084, -47.1614565951478 18.074876768247425 M-45.98836025146059 18.506587066708043 C-46.2882603787223 18.39622104762935, -46.58816050598401 18.285855028550653, -47.1614565951478 18.074876768247425 M-47.1614565951478 18.074876768247425 C-47.57818291614128 17.890404387690708, -47.994909237134756 17.705932007133992, -48.30448291279238 17.568892924097174 M-47.1614565951478 18.074876768247425 C-47.600260953502016 17.880631095472822, -48.03906531185623 17.686385422698216, -48.30448291279238 17.568892924097174 M-48.30448291279238 17.568892924097174 C-48.53947868823203 17.44629577857229, -48.77447446367168 17.323698633047403, -49.41274226407678 16.990714730406097 M-48.30448291279238 17.568892924097174 C-48.745110139660824 17.339017982075116, -49.18573736652927 17.10914304005306, -49.41274226407678 16.990714730406097 M-49.41274226407678 16.990714730406097 C-49.72867336598373 16.79919543981287, -50.04460446789067 16.607676149219643, -50.481680573605686 16.3427180453909 M-49.41274226407678 16.990714730406097 C-49.78107980614297 16.76742634781391, -50.149417348209155 16.544137965221726, -50.481680573605686 16.3427180453909 M-50.481680573605686 16.3427180453909 C-50.779177684967195 16.135196938947498, -51.07667479632871 15.927675832504097, -51.50690534457871 15.627565626425156 M-50.481680573605686 16.3427180453909 C-50.78892966201314 16.12839438191653, -51.09617875042059 15.91407071844216, -51.50690534457871 15.627565626425156 M-51.50690534457871 15.627565626425156 C-51.73982642848714 15.441817260298535, -51.97274751239558 15.256068894171914, -52.484203708501866 14.848196188198125 M-51.50690534457871 15.627565626425156 C-51.81625443784574 15.380867956669796, -52.12560353111277 15.134170286914438, -52.484203708501866 14.848196188198125 M-52.484203708501866 14.848196188198125 C-52.721837540560024 14.632383429369558, -52.95947137261819 14.416570670540992, -53.409559736767974 14.007812326905697 M-52.484203708501866 14.848196188198125 C-52.683360875494486 14.667326918545312, -52.882518042487106 14.486457648892497, -53.409559736767974 14.007812326905697 M-53.409559736767974 14.007812326905697 C-53.624708832931354 13.78565322104771, -53.83985792909473 13.563494115189723, -54.279170942968655 13.109867360095677 M-53.409559736767974 14.007812326905697 C-53.629850915028044 13.780343599110083, -53.85014209328811 13.552874871314469, -54.279170942968655 13.109867360095677 M-54.279170942968655 13.109867360095677 C-54.464733890446276 12.891894563157637, -54.65029683792389 12.673921766219594, -55.089463908126575 12.158051136245307 M-54.279170942968655 13.109867360095677 C-54.565477182563704 12.773555759780784, -54.85178342215875 12.437244159465893, -55.089463908126575 12.158051136245307 M-55.089463908126575 12.158051136245307 C-55.331232011387506 11.834103903402982, -55.57300011464843 11.510156670560654, -55.837108964640635 11.156274872382316 M-55.089463908126575 12.158051136245307 C-55.286609328454176 11.893894233323593, -55.48375474878178 11.629737330401877, -55.837108964640635 11.156274872382316 M-55.837108964640635 11.156274872382316 C-56.0283028519927 10.862549718662128, -56.21949673934476 10.568824564941941, -56.51903387860425 10.108655082055249 M-55.837108964640635 11.156274872382316 C-56.03565883186341 10.851248958223554, -56.234208699086174 10.546223044064792, -56.51903387860425 10.108655082055249 M-56.51903387860425 10.108655082055249 C-56.64715233683982 9.881167786057311, -56.775270795075386 9.653680490059374, -57.132436474273504 9.019496659696289 M-56.51903387860425 10.108655082055249 C-56.700020478797754 9.78729504653111, -56.88100707899126 9.465935011006971, -57.132436474273504 9.019496659696289 M-57.132436474273504 9.019496659696289 C-57.312153102936556 8.646311234957619, -57.4918697315996 8.273125810218948, -57.67479614880834 7.893275190886686 M-57.132436474273504 9.019496659696289 C-57.26299425445847 8.748390635653218, -57.393552034643434 8.477284611610147, -57.67479614880834 7.893275190886686 M-57.67479614880834 7.893275190886686 C-57.821190559668395 7.531678165718972, -57.96758497052844 7.170081140551258, -58.143884229970325 6.73461856121551 M-57.67479614880834 7.893275190886686 C-57.77078565233388 7.656179261347813, -57.866775155859415 7.419083331808938, -58.143884229970325 6.73461856121551 M-58.143884229970325 6.73461856121551 C-58.26381867693842 6.373395115906677, -58.383753123906516 6.012171670597843, -58.53777313421488 5.5482879393051325 M-58.143884229970325 6.73461856121551 C-58.22919656019446 6.47767141525431, -58.314508890418594 6.22072426929311, -58.53777313421488 5.5482879393051325 M-58.53777313421488 5.5482879393051325 C-58.652130193676655 5.112194908914315, -58.76648725313842 4.676101878523498, -58.85484428754556 4.339158212148136 M-58.53777313421488 5.5482879393051325 C-58.61639422239929 5.248471655462812, -58.6950153105837 4.948655371620492, -58.85484428754556 4.339158212148136 M-58.85484428754556 4.339158212148136 C-58.91096943683756 4.050967432588199, -58.96709458612957 3.7627766530282614, -59.093794776581774 3.112197953150904 M-58.85484428754556 4.339158212148136 C-58.91772644614497 4.0162716178891005, -58.980608604744376 3.6933850236300643, -59.093794776581774 3.112197953150904 M-59.093794776581774 3.112197953150904 C-59.13698952431579 2.7771880194936105, -59.18018427204981 2.4421780858363165, -59.25364270250937 1.872449005199809 M-59.093794776581774 3.112197953150904 C-59.13955355534497 2.7573019011565205, -59.185312334108154 2.402405849162137, -59.25364270250937 1.872449005199809 M-59.25364270250937 1.872449005199809 C-59.27405356735108 1.5545333099365215, -59.2944644321928 1.236617614673234, -59.33373121591342 0.6250057626472781 M-59.25364270250937 1.872449005199809 C-59.27429368226024 1.5507933264090834, -59.29494466201112 1.2291376476183578, -59.33373121591342 0.6250057626472781 M-59.33373121591342 0.6250057626472781 C-59.33373121591342 0.19977111875427905, -59.33373121591342 -0.22546352513872003, -59.33373121591342 -0.6250057626472687 M-59.33373121591342 0.6250057626472781 C-59.33373121591342 0.2047315605208223, -59.33373121591342 -0.21554264160563352, -59.33373121591342 -0.6250057626472687 M-59.33373121591342 -0.6250057626472687 C-59.305393521230386 -1.0663882311109698, -59.27705582654735 -1.5077706995746711, -59.25364270250937 -1.8724490051997822 M-59.33373121591342 -0.6250057626472687 C-59.311915509589426 -0.9648029979646542, -59.29009980326543 -1.3046002332820397, -59.25364270250937 -1.8724490051997822 M-59.25364270250937 -1.8724490051997822 C-59.1946739741138 -2.3297988179432827, -59.13570524571823 -2.7871486306867834, -59.093794776581774 -3.112197953150895 M-59.25364270250937 -1.8724490051997822 C-59.212185260317796 -2.193984740139686, -59.17072781812622 -2.5155204750795894, -59.093794776581774 -3.112197953150895 M-59.093794776581774 -3.112197953150895 C-59.0262514977754 -3.4590184145446012, -58.95870821896902 -3.805838875938307, -58.85484428754556 -4.339158212148126 M-59.093794776581774 -3.112197953150895 C-59.02282589039078 -3.4766081844622545, -58.95185700419978 -3.841018415773614, -58.85484428754556 -4.339158212148126 M-58.85484428754556 -4.339158212148126 C-58.72953897680912 -4.817001669651405, -58.604233666072666 -5.294845127154684, -58.53777313421489 -5.548287939305123 M-58.85484428754556 -4.339158212148126 C-58.75908506307862 -4.704329637350989, -58.66332583861168 -5.069501062553852, -58.53777313421489 -5.548287939305123 M-58.53777313421489 -5.548287939305123 C-58.456243761124234 -5.793841421112631, -58.37471438803359 -6.0393949029201375, -58.14388422997033 -6.734618561215485 M-58.53777313421489 -5.548287939305123 C-58.39012554407013 -5.992978956372318, -58.24247795392537 -6.437669973439513, -58.14388422997033 -6.734618561215485 M-58.14388422997033 -6.734618561215485 C-58.02276047013196 -7.033796589784835, -57.9016367102936 -7.332974618354185, -57.67479614880834 -7.893275190886676 M-58.14388422997033 -6.734618561215485 C-57.97307964449862 -7.156509189612619, -57.80227505902691 -7.5783998180097525, -57.67479614880834 -7.893275190886676 M-57.67479614880834 -7.893275190886676 C-57.45816746311726 -8.343109291835539, -57.24153877742619 -8.792943392784403, -57.132436474273504 -9.019496659696282 M-57.67479614880834 -7.893275190886676 C-57.55696584262102 -8.137952342849317, -57.4391355364337 -8.382629494811958, -57.132436474273504 -9.019496659696282 M-57.132436474273504 -9.019496659696282 C-56.958315563112414 -9.32866596911696, -56.78419465195133 -9.637835278537636, -56.51903387860425 -10.108655082055243 M-57.132436474273504 -9.019496659696282 C-56.96592999423272 -9.3151457756181, -56.799423514191936 -9.610794891539918, -56.51903387860425 -10.108655082055243 M-56.51903387860425 -10.108655082055243 C-56.31064143988649 -10.428801829130826, -56.10224900116873 -10.74894857620641, -55.83710896464064 -11.156274872382308 M-56.51903387860425 -10.108655082055243 C-56.37295641331797 -10.333069296026725, -56.226878948031704 -10.557483509998209, -55.83710896464064 -11.156274872382308 M-55.83710896464064 -11.156274872382308 C-55.66338799695289 -11.389045142778158, -55.48966702926514 -11.62181541317401, -55.08946390812659 -12.158051136245302 M-55.83710896464064 -11.156274872382308 C-55.54437296988076 -11.548514436562796, -55.25163697512089 -11.940754000743283, -55.08946390812659 -12.158051136245302 M-55.08946390812659 -12.158051136245302 C-54.86300174314743 -12.424066481292057, -54.63653957816827 -12.690081826338812, -54.27917094296866 -13.10986736009567 M-55.08946390812659 -12.158051136245302 C-54.84689907843786 -12.442981587527495, -54.604334248749126 -12.727912038809688, -54.27917094296866 -13.10986736009567 M-54.27917094296866 -13.10986736009567 C-54.00002305979779 -13.39811046793703, -53.72087517662691 -13.686353575778393, -53.409559736767996 -14.007812326905677 M-54.27917094296866 -13.10986736009567 C-54.02622497182312 -13.37105484255389, -53.773279000677576 -13.632242325012111, -53.409559736767996 -14.007812326905677 M-53.409559736767996 -14.007812326905677 C-53.15020134330698 -14.24335475759992, -52.89084294984597 -14.478897188294162, -52.48420370850189 -14.848196188198107 M-53.409559736767996 -14.007812326905677 C-53.07412499852355 -14.312445281062447, -52.738690260279114 -14.617078235219216, -52.48420370850189 -14.848196188198107 M-52.48420370850189 -14.848196188198107 C-52.23612459540391 -15.046032679231294, -51.988045482305935 -15.24386917026448, -51.50690534457872 -15.627565626425149 M-52.48420370850189 -14.848196188198107 C-52.26464931422421 -15.023284975046753, -52.04509491994653 -15.198373761895397, -51.50690534457872 -15.627565626425149 M-51.50690534457872 -15.627565626425149 C-51.211260484300084 -15.833794682695796, -50.91561562402145 -16.040023738966443, -50.481680573605715 -16.342718045390885 M-51.50690534457872 -15.627565626425149 C-51.27087227363104 -15.79221207901129, -51.034839202683365 -15.95685853159743, -50.481680573605715 -16.342718045390885 M-50.481680573605715 -16.342718045390885 C-50.225208151138325 -16.498193135089867, -49.968735728670936 -16.65366822478885, -49.41274226407679 -16.99071473040609 M-50.481680573605715 -16.342718045390885 C-50.10781711828996 -16.56935626906883, -49.7339536629742 -16.795994492746775, -49.41274226407679 -16.99071473040609 M-49.41274226407679 -16.99071473040609 C-49.15967140963308 -17.122741633069754, -48.90660055518937 -17.254768535733422, -48.30448291279239 -17.56889292409717 M-49.41274226407679 -16.99071473040609 C-49.11528230239678 -17.145899401882353, -48.81782234071677 -17.301084073358616, -48.30448291279239 -17.56889292409717 M-48.30448291279239 -17.56889292409717 C-47.867520013538574 -17.76232343755297, -47.43055711428476 -17.95575395100877, -47.161456595147804 -18.07487676824742 M-48.30448291279239 -17.56889292409717 C-47.92331282956097 -17.737625612934938, -47.54214274632955 -17.90635830177271, -47.161456595147804 -18.07487676824742 M-47.161456595147804 -18.07487676824742 C-46.76343882038356 -18.22135098859664, -46.36542104561932 -18.367825208945856, -45.98836025146062 -18.506587066708033 M-47.161456595147804 -18.07487676824742 C-46.913133870416004 -18.166261826418825, -46.66481114568421 -18.25764688459023, -45.98836025146062 -18.506587066708033 M-45.98836025146062 -18.506587066708033 C-45.58711890257302 -18.625673392899053, -45.185877553685415 -18.744759719090077, -44.79001438623541 -18.862249829261067 M-45.98836025146062 -18.506587066708033 C-45.53084729694334 -18.642374510074255, -45.073334342426065 -18.778161953440478, -44.79001438623541 -18.862249829261067 M-44.79001438623541 -18.862249829261067 C-44.33023007165667 -18.967192598690612, -43.87044575707793 -19.07213536812016, -43.571343259676766 -19.140403561325773 M-44.79001438623541 -18.862249829261067 C-44.36788830725183 -18.95859735215897, -43.94576222826826 -19.054944875056872, -43.571343259676766 -19.140403561325773 M-43.571343259676766 -19.140403561325773 C-43.31400355951634 -19.18200824834853, -43.05666385935591 -19.22361293537129, -42.33735465284788 -19.3399052695533 M-43.571343259676766 -19.140403561325773 C-43.17149329808345 -19.205048202233417, -42.77164333649013 -19.269692843141062, -42.33735465284788 -19.3399052695533 M-42.33735465284788 -19.3399052695533 C-41.93306016167158 -19.378907072881812, -41.528765670495275 -19.417908876210326, -41.0931192896239 -19.45993515863156 M-42.33735465284788 -19.3399052695533 C-42.03832331205996 -19.368752463361307, -41.73929197127203 -19.397599657169312, -41.0931192896239 -19.45993515863156 M-41.0931192896239 -19.45993515863156 C-40.764930213380964 -19.470459543525386, -40.43674113713803 -19.480983928419214, -39.84375000000001 -19.5 M-41.0931192896239 -19.45993515863156 C-40.76026751272689 -19.470609067259964, -40.42741573582989 -19.481282975888373, -39.84375000000001 -19.5 M-39.84375000000001 -19.5 C-39.84375000000001 -19.5, -39.84375000000001 -19.5, -39.84375 -19.5 M-39.84375000000001 -19.5 C-39.84375000000001 -19.5, -39.84375 -19.5, -39.84375 -19.5" stroke="#9370DB" stroke-width="1.3" fill="none" stroke-dasharray="0 0" style=""/></g><g class="label" style="" transform="translate(-46.96875, -12)"><rect/><foreignObject width="93.9375" height="24"><div xmlns="http://www.w3.org/1999/xhtml" style="display: table-cell; white-space: nowrap; line-height: 1.5; max-width: 200px; text-align: center;"><span class="nodeLabel"><p>team laptops</p></span></div></foreignObject></g></g><g class="node default" id="my-svg-flowchart-control-1" data-look="classic" transform="translate(266.70703125, 244)"><rect class="basic label-container" style="" x="-130" y="-99" width="260" height="198"/><g class="label" style="" transform="translate(-100, -84)"><rect/><foreignObject width="200" height="168"><div xmlns="http://www.w3.org/1999/xhtml" style="display: table; white-space: break-spaces; line-height: 1.5; max-width: 200px; text-align: center; width: 200px;"><span class="nodeLabel"><p>Linux node — docker compose<br />bajutsu serve --asgi --backend=server<br />postgres · minio<br />[+ Linux web worker container(s)]</p></span></div></foreignObject></g></g><g class="node default" id="my-svg-flowchart-macWorker-2" data-look="classic" transform="translate(121.046875, 468)"><rect class="basic label-container" style="" x="-113.046875" y="-51" width="226.09375" height="102"/><g class="label" style="" transform="translate(-83.046875, -36)"><rect/><foreignObject width="166.09375" height="72"><div xmlns="http://www.w3.org/1999/xhtml" style="display: table-cell; white-space: nowrap; line-height: 1.5; max-width: 200px; text-align: center;"><span class="nodeLabel"><p>Mac worker × N (bare)<br />bajutsu worker (idb)<br />bajutsu run · Simulator</p></span></div></foreignObject></g></g><g class="node default" id="my-svg-flowchart-webWorker-3" data-look="classic" transform="translate(412.3671875, 468)"><rect class="basic label-container" style="" x="-128.2734375" y="-39" width="256.546875" height="78"/><g class="label" style="" transform="translate(-98.2734375, -24)"><rect/><foreignObject width="196.546875" height="48"><div xmlns="http://www.w3.org/1999/xhtml" style="display: table-cell; white-space: nowrap; line-height: 1.5; max-width: 200px; text-align: center;"><span class="nodeLabel"><p>Linux web worker (web)<br />bajutsu worker · Chromium</p></span></div></foreignObject></g></g></g></g></g><defs><filter id="my-svg-drop-shadow" height="130%" width="130%"><feDropShadow dx="4" dy="4" stdDeviation="0" flood-opacity="0.06" flood-color="#000000"/></filter></defs><defs><filter id="my-svg-drop-shadow-small" height="150%" width="150%"><feDropShadow dx="2" dy="2" stdDeviation="0" flood-opacity="0.06" flood-color="#000000"/></filter></defs></svg>