<svg id="my-svg" width="100%" xmlns="http://www.w3.org/2000/svg" xmlns:xlink="http://www.w3.org/1999/xlink" class="flowchart" style="max-width: 562.705px; background-color: white;" viewBox="0 0 562.705322265625 590" role="graphics-document document" aria-roledescription="flowchart-v2"><style>#my-svg{font-family:"trebuchet ms",verdana,arial,sans-serif;font-size:16px;fill:#333;}@keyframes edge-animation-frame{from{stroke-dashoffset:0;}}@keyframes dash{to{stroke-dashoffset:0;}}#my-svg .edge-animation-slow{stroke-dasharray:9,5!important;stroke-dashoffset:900;animation:dash 50s linear infinite;stroke-linecap:round;}#my-svg .edge-animation-fast{stroke-dasharray:9,5!important;stroke-dashoffset:900;animation:dash 20s linear infinite;stroke-linecap:round;}#my-svg .error-icon{fill:#552222;}#my-svg .error-text{fill:#552222;stroke:#552222;}#my-svg .edge-thickness-normal{stroke-width:1px;}#my-svg .edge-thickness-thick{stroke-width:3.5px;}#my-svg .edge-pattern-solid{stroke-dasharray:0;}#my-svg .edge-thickness-invisible{stroke-width:0;fill:none;}#my-svg .edge-pattern-dashed{stroke-dasharray:3;}#my-svg .edge-pattern-dotted{stroke-dasharray:2;}#my-svg .marker{fill:#333333;stroke:#333333;}#my-svg .marker.cross{stroke:#333333;}#my-svg svg{font-family:"trebuchet ms",verdana,arial,sans-serif;font-size:16px;}#my-svg p{margin:0;}#my-svg .label{font-family:"trebuchet ms",verdana,arial,sans-serif;color:#333;}#my-svg .cluster-label text{fill:#333;}#my-svg .cluster-label span{color:#333;}#my-svg .cluster-label span p{background-color:transparent;}#my-svg .label text,#my-svg span{fill:#333;color:#333;}#my-svg .node rect,#my-svg .node circle,#my-svg .node ellipse,#my-svg .node polygon,#my-svg .node path{fill:#ECECFF;stroke:#9370DB;stroke-width:1px;}#my-svg .rough-node .label text,#my-svg .node .label text,#my-svg .image-shape .label,#my-svg .icon-shape .label{text-anchor:middle;}#my-svg .node .katex path{fill:#000;stroke:#000;stroke-width:1px;}#my-svg .rough-node .label,#my-svg .node .label,#my-svg .image-shape .label,#my-svg .icon-shape .label{text-align:center;}#my-svg .node.clickable{cursor:pointer;}#my-svg .root .anchor path{fill:#333333!important;stroke-width:0;stroke:#333333;}#my-svg .arrowheadPath{fill:#333333;}#my-svg .edgePath .path{stroke:#333333;stroke-width:1px;}#my-svg .flowchart-link{stroke:#333333;fill:none;}#my-svg .edgeLabel{background-color:rgba(232,232,232, 0.8);text-align:center;}#my-svg .edgeLabel p{background-color:rgba(232,232,232, 0.8);}#my-svg .edgeLabel rect{opacity:0.5;background-color:rgba(232,232,232, 0.8);fill:rgba(232,232,232, 0.8);}#my-svg .labelBkg{background-color:rgba(232, 232, 232, 0.5);}#my-svg .cluster rect{fill:#ffffde;stroke:#aaaa33;stroke-width:1px;}#my-svg .cluster text{fill:#333;}#my-svg .cluster span{color:#333;}#my-svg div.mermaidTooltip{position:absolute;text-align:center;max-width:200px;padding:2px;font-family:"trebuchet ms",verdana,arial,sans-serif;font-size:12px;background:hsl(80, 100%, 96.2745098039%);border:1px solid #aaaa33;border-radius:2px;pointer-events:none;z-index:100;}#my-svg .flowchartTitleText{text-anchor:middle;font-size:18px;fill:#333;}#my-svg rect.text{fill:none;stroke-width:0;}#my-svg .icon-shape,#my-svg .image-shape{background-color:rgba(232,232,232, 0.8);text-align:center;}#my-svg .icon-shape p,#my-svg .image-shape p{background-color:rgba(232,232,232, 0.8);padding:2px;}#my-svg .icon-shape .label rect,#my-svg .image-shape .label rect{opacity:0.5;background-color:rgba(232,232,232, 0.8);fill:rgba(232,232,232, 0.8);}#my-svg .label-icon{display:inline-block;height:1em;overflow:visible;vertical-align:-0.125em;}#my-svg .node .label-icon path{fill:currentColor;stroke:revert;stroke-width:revert;}#my-svg .node .neo-node{stroke:#9370DB;}#my-svg [data-look="neo"].node rect,#my-svg [data-look="neo"].cluster rect,#my-svg [data-look="neo"].node polygon{stroke:#9370DB;filter:drop-shadow(1px 2px 2px rgba(185, 185, 185, 1));}#my-svg [data-look="neo"].swimlane.cluster rect{filter:none;}#my-svg [data-look="neo"].node path{stroke:#9370DB;stroke-width:1px;}#my-svg [data-look="neo"].node .outer-path{filter:drop-shadow(1px 2px 2px rgba(185, 185, 185, 1));}#my-svg [data-look="neo"].node .neo-line path{stroke:#9370DB;filter:none;}#my-svg [data-look="neo"].node circle{stroke:#9370DB;filter:drop-shadow(1px 2px 2px rgba(185, 185, 185, 1));}#my-svg [data-look="neo"].node circle .state-start{fill:#000000;}#my-svg [data-look="neo"].icon-shape .icon{fill:#9370DB;filter:drop-shadow(1px 2px 2px rgba(185, 185, 185, 1));}#my-svg [data-look="neo"].icon-shape .icon-neo path{stroke:#9370DB;filter:drop-shadow(1px 2px 2px rgba(185, 185, 185, 1));}#my-svg :root{--mermaid-font-family:"trebuchet ms",verdana,arial,sans-serif;}</style><g><marker id="my-svg_flowchart-v2-pointEnd" class="marker flowchart-v2" viewBox="0 0 10 10" refX="5" refY="5" markerUnits="userSpaceOnUse" markerWidth="8" markerHeight="8" orient="auto"><path d="M 0 0 L 10 5 L 0 10 z" class="arrowMarkerPath" style="stroke-width: 1; stroke-dasharray: 1, 0;"/></marker><marker id="my-svg_flowchart-v2-pointStart" class="marker flowchart-v2" viewBox="0 0 10 10" refX="4.5" refY="5" markerUnits="userSpaceOnUse" markerWidth="8" markerHeight="8" orient="auto"><path d="M 0 5 L 10 10 L 10 0 z" class="arrowMarkerPath" style="stroke-width: 1; stroke-dasharray: 1, 0;"/></marker><marker id="my-svg_flowchart-v2-pointEnd-margin" class="marker flowchart-v2" viewBox="0 0 11.5 14" refX="11.5" refY="7" markerUnits="userSpaceOnUse" markerWidth="10.5" markerHeight="14" orient="auto"><path d="M 0 0 L 11.5 7 L 0 14 z" class="arrowMarkerPath" style="stroke-width: 0; stroke-dasharray: 1, 0;"/></marker><marker id="my-svg_flowchart-v2-pointStart-margin" class="marker flowchart-v2" viewBox="0 0 11.5 14" refX="1" refY="7" markerUnits="userSpaceOnUse" markerWidth="11.5" markerHeight="14" orient="auto"><polygon points="0,7 11.5,14 11.5,0" class="arrowMarkerPath" style="stroke-width: 0; stroke-dasharray: 1, 0;"/></marker><marker id="my-svg_flowchart-v2-circleEnd" class="marker flowchart-v2" viewBox="0 0 10 10" refX="11" refY="5" markerUnits="userSpaceOnUse" markerWidth="11" markerHeight="11" orient="auto"><circle cx="5" cy="5" r="5" class="arrowMarkerPath" style="stroke-width: 1; stroke-dasharray: 1, 0;"/></marker><marker id="my-svg_flowchart-v2-circleStart" class="marker flowchart-v2" viewBox="0 0 10 10" refX="-1" refY="5" markerUnits="userSpaceOnUse" markerWidth="11" markerHeight="11" orient="auto"><circle cx="5" cy="5" r="5" class="arrowMarkerPath" style="stroke-width: 1; stroke-dasharray: 1, 0;"/></marker><marker id="my-svg_flowchart-v2-circleEnd-margin" class="marker flowchart-v2" viewBox="0 0 10 10" refY="5" refX="12.25" markerUnits="userSpaceOnUse" markerWidth="14" markerHeight="14" orient="auto"><circle cx="5" cy="5" r="5" class="arrowMarkerPath" style="stroke-width: 0; stroke-dasharray: 1, 0;"/></marker><marker id="my-svg_flowchart-v2-circleStart-margin" class="marker flowchart-v2" viewBox="0 0 10 10" refX="-2" refY="5" markerUnits="userSpaceOnUse" markerWidth="14" markerHeight="14" orient="auto"><circle cx="5" cy="5" r="5" class="arrowMarkerPath" style="stroke-width: 0; stroke-dasharray: 1, 0;"/></marker><marker id="my-svg_flowchart-v2-crossEnd" class="marker cross flowchart-v2" viewBox="0 0 11 11" refX="12" refY="5.2" markerUnits="userSpaceOnUse" markerWidth="11" markerHeight="11" orient="auto"><path d="M 1,1 l 9,9 M 10,1 l -9,9" class="arrowMarkerPath" style="stroke-width: 2; stroke-dasharray: 1, 0;"/></marker><marker id="my-svg_flowchart-v2-crossStart" class="marker cross flowchart-v2" viewBox="0 0 11 11" refX="-1" refY="5.2" markerUnits="userSpaceOnUse" markerWidth="11" markerHeight="11" orient="auto"><path d="M 1,1 l 9,9 M 10,1 l -9,9" class="arrowMarkerPath" style="stroke-width: 2; stroke-dasharray: 1, 0;"/></marker><marker id="my-svg_flowchart-v2-crossEnd-margin" class="marker cross flowchart-v2" viewBox="0 0 15 15" refX="17.7" refY="7.5" markerUnits="userSpaceOnUse" markerWidth="12" markerHeight="12" orient="auto"><path d="M 1,1 L 14,14 M 1,14 L 14,1" class="arrowMarkerPath" style="stroke-width: 2.5;"/></marker><marker id="my-svg_flowchart-v2-crossStart-margin" class="marker cross flowchart-v2" viewBox="0 0 15 15" refX="-3.5" refY="7.5" markerUnits="userSpaceOnUse" markerWidth="12" markerHeight="12" orient="auto"><path d="M 1,1 L 14,14 M 1,14 L 14,1" class="arrowMarkerPath" style="stroke-width: 2.5; stroke-dasharray: 1, 0;"/></marker><g class="root"><g class="clusters"/><g class="edgePaths"><path d="M158.032,240L176.644,213.833C195.256,187.667,232.481,135.333,254.593,109.167C276.705,83,283.705,83,287.205,83L290.705,83" id="my-svg-L_core_reach_0" class="edge-thickness-normal edge-pattern-solid edge-thickness-normal edge-pattern-solid flowchart-link" style=";" data-edge="true" data-et="edge" data-id="L_core_reach_0" data-points="W3sieCI6MTU4LjAzMTg1NTY0MDQxMTM4LCJ5IjoyNDB9LHsieCI6MjY5LjcwNTMwNzAwNjgzNTk0LCJ5Ijo4M30seyJ4IjoyOTQuNzA1MzA3MDA2ODM1OTQsInkiOjgzfV0=" data-look="classic" marker-end="url(#my-svg_flowchart-v2-pointEnd)"/><path d="M245.205,283.5L249.289,283.417C253.372,283.333,261.539,283.167,269.122,283.083C276.705,283,283.705,283,287.205,283L290.705,283" id="my-svg-L_core_scale_0" class="edge-thickness-normal edge-pattern-solid edge-thickness-normal edge-pattern-solid flowchart-link" style=";" data-edge="true" data-et="edge" data-id="L_core_scale_0" data-points="W3sieCI6MjQ1LjIwNTMwMDgwOTQ1NzY3LCJ5IjoyODMuNX0seyJ4IjoyNjkuNzA1MzA3MDA2ODM1OTQsInkiOjI4M30seyJ4IjoyOTQuNzA1MzA3MDA2ODM1OTQsInkiOjI4M31d" data-look="classic" marker-end="url(#my-svg_flowchart-v2-pointEnd)"/><path d="M156.267,327L175.173,355C194.08,383,231.893,439,254.299,467C276.705,495,283.705,495,287.205,495L290.705,495" id="my-svg-L_core_authoring_0" class="edge-thickness-normal edge-pattern-solid edge-thickness-normal edge-pattern-solid flowchart-link" style=";" data-edge="true" data-et="edge" data-id="L_core_authoring_0" data-points="W3sieCI6MTU2LjI2Njk5NTE0MjA5MSwieSI6MzI3fSx7IngiOjI2OS43MDUzMDcwMDY4MzU5NCwieSI6NDk1fSx7IngiOjI5NC43MDUzMDcwMDY4MzU5NCwieSI6NDk1fV0=" data-look="classic" marker-end="url(#my-svg_flowchart-v2-pointEnd)"/></g><g class="edgeLabels"><g class="edgeLabel"><g class="label" data-id="L_core_reach_0" transform="translate(0, 0)"><foreignObject width="0" height="0"><div xmlns="http://www.w3.org/1999/xhtml" class="labelBkg" style="display: table-cell; white-space: nowrap; line-height: 1.5; max-width: 200px; text-align: center;"><span class="edgeLabel"></span></div></foreignObject></g></g><g class="edgeLabel"><g class="label" data-id="L_core_scale_0" transform="translate(0, 0)"><foreignObject width="0" height="0"><div xmlns="http://www.w3.org/1999/xhtml" class="labelBkg" style="display: table-cell; white-space: nowrap; line-height: 1.5; max-width: 200px; text-align: center;"><span class="edgeLabel"></span></div></foreignObject></g></g><g class="edgeLabel"><g class="label" data-id="L_core_authoring_0" transform="translate(0, 0)"><foreignObject width="0" height="0"><div xmlns="http://www.w3.org/1999/xhtml" class="labelBkg" style="display: table-cell; white-space: nowrap; line-height: 1.5; max-width: 200px; text-align: center;"><span class="edgeLabel"></span></div></foreignObject></g></g></g><g class="nodes"><g class="node default" id="my-svg-flowchart-core-0" data-look="classic" transform="translate(126.35265350341797, 283)"><g class="basic label-container outer-path"><path d="M-74.875 -43.5 C-35.53362353737379 -43.5, 3.807752925252416 -43.5, 74.875 -43.5 C74.875 -43.5, 74.875 -43.5, 74.875 -43.5 C75.73157469394123 -43.4725313167868, 76.58814938788244 -43.445062633573606, 77.66205456916101 -43.41062458463963 C78.32035864760888 -43.34711878191825, 78.97866272605674 -43.283612979196874, 80.43765653327601 -43.14286560131121 C81.31527298281368 -43.00097937976717, 82.19288943235135 -42.85909315822313, 83.19040034850968 -42.697823329111344 C83.73645056377036 -42.573190930788755, 84.28250077903104 -42.44855853246617, 85.90897440006356 -42.07732654219778 C86.44791341476514 -41.91737227158297, 86.98685242946674 -41.75741800096815, 88.58220748402749 -41.28392499496409 C89.39031483684761 -40.986534019063804, 90.19842218966772 -40.68914304316352, 91.19911471225277 -40.32087894455194 C91.77376065012137 -40.0665002341236, 92.34840658798998 -39.81212152369526, 93.74894265161377 -39.192145753755234 C94.72745946323072 -38.6816541599046, 95.70597627484766 -38.17116256605398, 96.22121351217129 -37.90236362936744 C96.96690374295636 -37.45032182930332, 97.71259397374145 -36.9982800292392, 98.60576820265887 -36.45683256279507 C99.10043467557081 -36.11177464505818, 99.59510114848275 -35.76671672732129, 100.8928080763679 -34.86149255125611 C101.6511241734994 -34.25675564343258, 102.4094402706309 -33.65201873560904, 103.07293519588879 -33.12289918905735 C103.88856605653173 -32.38216482183143, 104.70419691717468 -31.641430454605505, 105.13719095125165 -31.248196729251152 C105.55380742259388 -30.81800601774188, 105.97042389393611 -30.38781530623261, 107.07709287277622 -29.24508872636729 C107.78144983525524 -28.417710959192874, 108.48580679773427 -27.590333192018456, 108.8846694873593 -27.12180638085491 C109.45555732233387 -26.356868690940676, 110.02644515730844 -25.591931001026445, 110.55249307496757 -24.88707471531439 C110.91375196505027 -24.332084048552485, 111.27501085513296 -23.77709338179058, 112.07371019073256 -22.550076721507846 C112.35263836645247 -22.05481150097661, 112.6315665421724 -21.559546280445367, 113.44206982722551 -20.120415625476333 C113.68727476369784 -19.61124232834637, 113.93247970017018 -19.10206903121641, 114.65194910118784 -17.60807542582414 C114.8711049026599 -17.066756359099003, 115.09026070413194 -16.525437292373866, 115.69837635916457 -15.023379867326902 C116.01479118083256 -14.070388838318436, 116.33120600250055 -13.117397809309969, 116.57705160709475 -12.376950018449923 C116.79545459076415 -11.544084785266556, 117.01385757443356 -10.711219552083188, 117.28436417990932 -9.67966062709968 C117.4424253947314 -8.868049695237902, 117.60048660955349 -8.056438763376123, 117.81740757852859 -6.942595433952013 C117.93660638415062 -6.018113036014032, 118.05580518977266 -5.093630638076051, 118.17399141329012 -4.177001626984165 C118.22751255502493 -3.3433666429765254, 118.28103369675974 -2.509731658968886, 118.35265040472993 -1.3942436243669998 C118.35265040472993 -0.4800831841529588, 118.35265040472993 0.43407725606108216, 118.35265040472993 1.3942436243669891 C118.28651593544006 2.4243413663394833, 118.22038146615019 3.4544391083119774, 118.17399141329012 4.177001626984135 C118.07661136435985 4.932262056621663, 117.97923131542957 5.68752248625919, 117.81740757852859 6.942595433951983 C117.70044414200197 7.543177960285069, 117.58348070547535 8.143760486618156, 117.28436417990932 9.679660627099672 C117.03625838589127 10.625795549421849, 116.78815259187321 11.571930471744023, 116.57705160709475 12.376950018449895 C116.2258147759413 13.43481939189479, 115.87457794478786 14.492688765339686, 115.69837635916457 15.023379867326874 C115.36221934182709 15.85369419930426, 115.02606232448962 16.684008531281645, 114.65194910118785 17.60807542582413 C114.3887485479745 18.15461700616134, 114.12554799476113 18.70115858649855, 113.44206982722551 20.120415625476323 C113.15327929022389 20.633192467135576, 112.86448875322229 21.145969308794832, 112.07371019073256 22.550076721507835 C111.55312079060884 23.349841837925347, 111.03253139048512 24.149606954342854, 110.5524930749676 24.887074715314366 C109.94755202129348 25.69764061597396, 109.34261096761935 26.50820651663355, 108.8846694873593 27.121806380854903 C108.51884948566642 27.551519370591144, 108.15302948397353 27.98123236032739, 107.07709287277623 29.245088726367264 C106.30938994985691 30.037805023863637, 105.54168702693758 30.830521321360006, 105.13719095125167 31.24819672925114 C104.36070872433731 31.953377343140843, 103.58422649742295 32.658557957030546, 103.07293519588882 33.12289918905732 C102.41861280733579 33.64470388167834, 101.76429041878275 34.166508574299364, 100.89280807636791 34.861492551256106 C100.00530915558875 35.48057337918257, 99.11781023480958 36.09965420710905, 98.60576820265888 36.45683256279506 C97.93951856755558 36.860717006912125, 97.27326893245228 37.26460145102919, 96.22121351217129 37.90236362936744 C95.26242415224667 38.40256342430622, 94.30363479232204 38.902763219245, 93.74894265161379 39.19214575375523 C92.83186177310824 39.598110254431944, 91.9147808946027 40.004074755108654, 91.1991147122528 40.32087894455194 C90.38384279595577 40.620906546040224, 89.56857087965875 40.920934147528506, 88.58220748402752 41.283924994964075 C87.95337848122314 41.470558142205626, 87.32454947841875 41.65719128944718, 85.90897440006361 42.077326542197774 C85.05630923075009 42.271941802933355, 84.20364406143656 42.466557063668944, 83.19040034850971 42.697823329111344 C82.56462986876076 42.79899304735461, 81.9388593890118 42.90016276559786, 80.43765653327604 43.1428656013112 C79.7903428362782 43.20531117515196, 79.14302913928037 43.267756748992724, 77.66205456916101 43.41062458463963 C76.8448077528687 43.4368320993637, 76.02756093657638 43.46303961408776, 74.87500000000001 43.5 C74.87500000000001 43.5, 74.875 43.5, 74.875 43.5 C44.31969819771466 43.5, 13.764396395429323 43.5, -74.87499999999999 43.5 C-75.87174246748408 43.4680364091093, -76.8684849349682 43.436072818218605, -77.66205456916099 43.41062458463963 C-78.66167230594678 43.31419266378812, -79.66129004273257 43.21776074293661, -80.43765653327603 43.1428656013112 C-81.21964843693287 43.01643921476575, -82.00164034058972 42.89001282822029, -83.1904003485097 42.697823329111344 C-83.96882015877789 42.52015408708161, -84.74723996904609 42.34248484505187, -85.90897440006356 42.07732654219778 C-86.76109229864552 41.82442242275678, -87.61321019722749 41.57151830331578, -88.58220748402748 41.283924994964096 C-89.53614866105937 40.932865823680785, -90.49008983809127 40.58180665239747, -91.19911471225278 40.32087894455194 C-91.95306000191007 39.98712972981305, -92.70700529156737 39.653380515074154, -93.74894265161377 39.192145753755234 C-94.59386925993888 38.751348083393346, -95.438795868264 38.31055041303146, -96.22121351217127 37.90236362936745 C-97.09864858719041 37.37045733051, -97.97608366220955 36.83855103165254, -98.60576820265884 36.456832562795086 C-99.42569602860779 35.884886405516625, -100.24562385455674 35.31294024823816, -100.89280807636788 34.86149255125612 C-101.43608614025874 34.42824275253961, -101.9793642041496 33.99499295382309, -103.07293519588879 33.12289918905736 C-103.57848755525424 32.66376991246409, -104.0840399146197 32.204640635870824, -105.13719095125164 31.24819672925117 C-105.55708405475995 30.81462262601391, -105.97697715826827 30.38104852277665, -107.07709287277623 29.245088726367282 C-107.67903529294925 28.538012908138036, -108.28097771312228 27.83093708990879, -108.88466948735929 27.121806380854917 C-109.50401455262241 26.29194041689852, -110.12335961788554 25.46207445294212, -110.55249307496757 24.887074715314395 C-111.05753580820881 24.11119345409297, -111.56257854145005 23.335312192871545, -112.07371019073254 22.550076721507864 C-112.46133819933719 21.861803940638147, -112.84896620794184 21.17353115976843, -113.44206982722551 20.120415625476337 C-113.76818723080304 19.443225859152975, -114.09430463438058 18.76603609282961, -114.65194910118784 17.608075425824147 C-114.9000471828755 16.995268367405536, -115.14814526456315 16.382461308986926, -115.69837635916457 15.023379867326907 C-116.04173866532 13.989227308540864, -116.38510097147541 12.955074749754822, -116.57705160709475 12.37695001844991 C-116.81347244816271 11.475374886017038, -117.04989328923068 10.573799753584163, -117.28436417990932 9.679660627099686 C-117.41351792646769 9.01648343517648, -117.54267167302606 8.353306243253275, -117.81740757852859 6.942595433952017 C-117.93704939614013 6.014677122506095, -118.05669121375165 5.0867588110601725, -118.17399141329011 4.17700162698419 C-118.21201082048432 3.584818671221205, -118.25003022767854 2.9926357154582206, -118.35265040472993 1.394243624367005 C-118.35265040472993 0.7185008029171868, -118.35265040472993 0.04275798146736842, -118.35265040472993 -1.394243624366984 C-118.29137729661055 -2.348621742088908, -118.23010418849118 -3.302999859810833, -118.17399141329012 -4.177001626984129 C-118.07499465576893 -4.944800929197598, -117.97599789824774 -5.712600231411066, -117.81740757852859 -6.942595433951997 C-117.6410461044754 -7.848174329204401, -117.46468463042218 -8.753753224456805, -117.28436417990932 -9.679660627099667 C-117.06118260228213 -10.530748710099765, -116.83800102465494 -11.381836793099863, -116.57705160709475 -12.37695001844989 C-116.36623998242777 -13.011881043675816, -116.1554283577608 -13.646812068901744, -115.6983763591646 -15.023379867326852 C-115.41423551097165 -15.725213255853017, -115.1300946627787 -16.427046644379182, -114.65194910118785 -17.608075425824126 C-114.21316678388938 -18.519216296132, -113.7743844665909 -19.430357166439872, -113.44206982722551 -20.12041562547632 C-112.91821290398416 -21.05057663895697, -112.3943559807428 -21.980737652437615, -112.07371019073256 -22.55007672150785 C-111.7454617604326 -23.05435445749385, -111.41721333013267 -23.55863219347985, -110.55249307496757 -24.88707471531438 C-110.03745935775342 -25.577172975844462, -109.52242564053927 -26.267271236374544, -108.8846694873593 -27.121806380854903 C-108.33301039779622 -27.76981653774715, -107.78135130823311 -28.417826694639402, -107.07709287277623 -29.245088726367264 C-106.6107764892851 -29.72659867760895, -106.14446010579397 -30.20810862885064, -105.13719095125168 -31.248196729251127 C-104.40262367609354 -31.915311292964695, -103.66805640093538 -32.58242585667826, -103.07293519588883 -33.12289918905732 C-102.52280730035228 -33.56161154622959, -101.97267940481575 -34.00032390340187, -100.89280807636791 -34.861492551256106 C-100.32416969500915 -35.2581500701332, -99.75553131365037 -35.65480758901028, -98.6057682026589 -36.45683256279505 C-97.71996122954978 -36.99381395547338, -96.83415425644067 -37.53079534815171, -96.2212135121713 -37.902363629367436 C-95.42543514240334 -38.317520695155004, -94.62965677263539 -38.73267776094258, -93.74894265161379 -39.19214575375523 C-93.21678421056345 -39.427716509688935, -92.68462576951309 -39.66328726562264, -91.1991147122528 -40.320878944551936 C-90.54859933913568 -40.560274615157226, -89.89808396601858 -40.79967028576251, -88.58220748402753 -41.283924994964075 C-88.01484158861548 -41.45231621455802, -87.44747569320343 -41.62070743415195, -85.90897440006361 -42.07732654219777 C-84.96821105329352 -42.292049637043476, -84.02744770652342 -42.50677273188919, -83.19040034850971 -42.69782332911134 C-82.40503926209752 -42.82479441899628, -81.61967817568531 -42.95176550888121, -80.43765653327604 -43.1428656013112 C-79.35674445682699 -43.24713988933927, -78.27583238037792 -43.351414177367346, -77.66205456916101 -43.41062458463963 C-76.81953342092635 -43.437642597995584, -75.9770122726917 -43.46466061135154, -74.87500000000001 -43.5 C-74.87500000000001 -43.5, -74.875 -43.5, -74.875 -43.5" stroke="none" stroke-width="0" fill="#ECECFF" style=""/><path d="M-74.875 -43.5 C-42.037616093059434 -43.5, -9.200232186118868 -43.5, 74.875 -43.5 M-74.875 -43.5 C-32.215991393372754 -43.5, 10.443017213254493 -43.5, 74.875 -43.5 M74.875 -43.5 C74.875 -43.5, 74.875 -43.5, 74.875 -43.5 M74.875 -43.5 C74.875 -43.5, 74.875 -43.5, 74.875 -43.5 M74.875 -43.5 C75.78910483345004 -43.47068643718838, 76.7032096669001 -43.44137287437675, 77.66205456916101 -43.41062458463963 M74.875 -43.5 C75.81245311803725 -43.46993770314634, 76.7499062360745 -43.439875406292686, 77.66205456916101 -43.41062458463963 M77.66205456916101 -43.41062458463963 C78.4986246575673 -43.329921674333804, 79.3351947459736 -43.24921876402799, 80.43765653327601 -43.14286560131121 M77.66205456916101 -43.41062458463963 C78.63586036708152 -43.31668271048706, 79.60966616500203 -43.22274083633449, 80.43765653327601 -43.14286560131121 M80.43765653327601 -43.14286560131121 C81.14869823451905 -43.02790989326498, 81.85973993576208 -42.91295418521876, 83.19040034850968 -42.697823329111344 M80.43765653327601 -43.14286560131121 C81.12004574359551 -43.032542205794115, 81.80243495391501 -42.922218810277016, 83.19040034850968 -42.697823329111344 M83.19040034850968 -42.697823329111344 C83.9156127015096 -42.53229834199199, 84.64082505450952 -42.36677335487263, 85.90897440006356 -42.07732654219778 M83.19040034850968 -42.697823329111344 C83.77337188070983 -42.564763881131434, 84.35634341290996 -42.43170443315152, 85.90897440006356 -42.07732654219778 M85.90897440006356 -42.07732654219778 C86.49412105208798 -41.90365808737439, 87.0792677041124 -41.729989632550996, 88.58220748402749 -41.28392499496409 M85.90897440006356 -42.07732654219778 C86.49608708354306 -41.90307457955843, 87.08319976702258 -41.728822616919075, 88.58220748402749 -41.28392499496409 M88.58220748402749 -41.28392499496409 C89.24853082128786 -41.03871184742686, 89.91485415854822 -40.79349869988963, 91.19911471225277 -40.32087894455194 M88.58220748402749 -41.28392499496409 C89.47564219130456 -40.95513276386623, 90.36907689858161 -40.62634053276837, 91.19911471225277 -40.32087894455194 M91.19911471225277 -40.32087894455194 C91.8552255745493 -40.03043812865049, 92.51133643684582 -39.73999731274903, 93.74894265161377 -39.192145753755234 M91.19911471225277 -40.32087894455194 C91.82321560091246 -40.044607994437385, 92.44731648957215 -39.76833704432282, 93.74894265161377 -39.192145753755234 M93.74894265161377 -39.192145753755234 C94.47303669928 -38.814386352892136, 95.19713074694623 -38.43662695202904, 96.22121351217129 -37.90236362936744 M93.74894265161377 -39.192145753755234 C94.42761131257059 -38.838084748042085, 95.10627997352742 -38.48402374232894, 96.22121351217129 -37.90236362936744 M96.22121351217129 -37.90236362936744 C96.93847853200603 -37.46755335922649, 97.65574355184077 -37.03274308908555, 98.60576820265887 -36.45683256279507 M96.22121351217129 -37.90236362936744 C96.73738894247768 -37.58945505013217, 97.25356437278408 -37.27654647089691, 98.60576820265887 -36.45683256279507 M98.60576820265887 -36.45683256279507 C99.36747893769581 -35.925496127959576, 100.12918967273274 -35.39415969312409, 100.8928080763679 -34.86149255125611 M98.60576820265887 -36.45683256279507 C99.48369448564206 -35.844429192602256, 100.36162076862526 -35.23202582240944, 100.8928080763679 -34.86149255125611 M100.8928080763679 -34.86149255125611 C101.73121983149255 -34.19288148761801, 102.56963158661719 -33.524270423979914, 103.07293519588879 -33.12289918905735 M100.8928080763679 -34.86149255125611 C101.43051672603282 -34.43268421217645, 101.96822537569774 -34.003875873096774, 103.07293519588879 -33.12289918905735 M103.07293519588879 -33.12289918905735 C103.56444475056534 -32.676523216130285, 104.05595430524191 -32.23014724320322, 105.13719095125165 -31.248196729251152 M103.07293519588879 -33.12289918905735 C103.78383927382066 -32.4772749149708, 104.49474335175253 -31.831650640884245, 105.13719095125165 -31.248196729251152 M105.13719095125165 -31.248196729251152 C105.84815579898776 -30.51406715266407, 106.55912064672387 -29.779937576076986, 107.07709287277622 -29.24508872636729 M105.13719095125165 -31.248196729251152 C105.78014467847672 -30.58429421840856, 106.42309840570178 -29.920391707565965, 107.07709287277622 -29.24508872636729 M107.07709287277622 -29.24508872636729 C107.55514667222621 -28.683539531501538, 108.03320047167621 -28.121990336635783, 108.8846694873593 -27.12180638085491 M107.07709287277622 -29.24508872636729 C107.66767552652259 -28.551356736171815, 108.25825818026897 -27.85762474597634, 108.8846694873593 -27.12180638085491 M108.8846694873593 -27.12180638085491 C109.41376863368221 -26.41286172670606, 109.9428677800051 -25.703917072557203, 110.55249307496757 -24.88707471531439 M108.8846694873593 -27.12180638085491 C109.34989453188994 -26.498447204057314, 109.81511957642057 -25.875088027259714, 110.55249307496757 -24.88707471531439 M110.55249307496757 -24.88707471531439 C111.03578796178283 -24.14460398631774, 111.51908284859807 -23.40213325732109, 112.07371019073256 -22.550076721507846 M110.55249307496757 -24.88707471531439 C111.15751220273113 -23.95760286468576, 111.7625313304947 -23.028131014057134, 112.07371019073256 -22.550076721507846 M112.07371019073256 -22.550076721507846 C112.49012984231014 -21.81068146306969, 112.90654949388771 -21.07128620463154, 113.44206982722551 -20.120415625476333 M112.07371019073256 -22.550076721507846 C112.54951646962809 -21.705234492718564, 113.02532274852362 -20.86039226392928, 113.44206982722551 -20.120415625476333 M113.44206982722551 -20.120415625476333 C113.81970598295601 -19.336246067982636, 114.1973421386865 -18.55207651048894, 114.65194910118784 -17.60807542582414 M113.44206982722551 -20.120415625476333 C113.92341157813037 -19.120899180658803, 114.40475332903522 -18.12138273584127, 114.65194910118784 -17.60807542582414 M114.65194910118784 -17.60807542582414 C115.04552914924109 -16.635925097780046, 115.43910919729433 -15.663774769735953, 115.69837635916457 -15.023379867326902 M114.65194910118784 -17.60807542582414 C114.8718898737118 -17.064817465424426, 115.09183064623574 -16.52155950502471, 115.69837635916457 -15.023379867326902 M115.69837635916457 -15.023379867326902 C115.91726226256455 -14.364130401018798, 116.13614816596453 -13.704880934710692, 116.57705160709475 -12.376950018449923 M115.69837635916457 -15.023379867326902 C115.98975620331193 -14.145790201828593, 116.28113604745928 -13.268200536330284, 116.57705160709475 -12.376950018449923 M116.57705160709475 -12.376950018449923 C116.73835920195418 -11.761814248097023, 116.89966679681362 -11.146678477744123, 117.28436417990932 -9.67966062709968 M116.57705160709475 -12.376950018449923 C116.84568974978353 -11.352516351870023, 117.11432789247232 -10.328082685290124, 117.28436417990932 -9.67966062709968 M117.28436417990932 -9.67966062709968 C117.39453010649977 -9.113981877634512, 117.50469603309024 -8.54830312816934, 117.81740757852859 -6.942595433952013 M117.28436417990932 -9.67966062709968 C117.43515748802425 -8.905368860106476, 117.58595079613919 -8.131077093113271, 117.81740757852859 -6.942595433952013 M117.81740757852859 -6.942595433952013 C117.88919007772328 -6.385864545255662, 117.960972576918 -5.829133656559311, 118.17399141329012 -4.177001626984165 M117.81740757852859 -6.942595433952013 C117.92686834705671 -6.09363932872154, 118.03632911558482 -5.244683223491068, 118.17399141329012 -4.177001626984165 M118.17399141329012 -4.177001626984165 C118.21454110577777 -3.545407435366488, 118.25509079826541 -2.9138132437488116, 118.35265040472993 -1.3942436243669998 M118.17399141329012 -4.177001626984165 C118.24403345566294 -3.086040280108494, 118.31407549803576 -1.995078933232823, 118.35265040472993 -1.3942436243669998 M118.35265040472993 -1.3942436243669998 C118.35265040472993 -0.7185502015656129, 118.35265040472993 -0.042856778764226, 118.35265040472993 1.3942436243669891 M118.35265040472993 -1.3942436243669998 C118.35265040472993 -0.34774624938259446, 118.35265040472993 0.6987511256018109, 118.35265040472993 1.3942436243669891 M118.35265040472993 1.3942436243669891 C118.28165841916889 2.5000011031795486, 118.21066643360784 3.605758581992108, 118.17399141329012 4.177001626984135 M118.35265040472993 1.3942436243669891 C118.29760823664537 2.2515698215223514, 118.24256606856082 3.108896018677714, 118.17399141329012 4.177001626984135 M118.17399141329012 4.177001626984135 C118.07922455689695 4.911994651337187, 117.98445770050377 5.646987675690239, 117.81740757852859 6.942595433951983 M118.17399141329012 4.177001626984135 C118.03809941116857 5.2309531605278465, 117.90220740904702 6.284904694071559, 117.81740757852859 6.942595433951983 M117.81740757852859 6.942595433951983 C117.6979394001573 7.556039280280095, 117.578471221786 8.169483126608208, 117.28436417990932 9.679660627099672 M117.81740757852859 6.942595433951983 C117.63382946590193 7.885230243041996, 117.45025135327528 8.82786505213201, 117.28436417990932 9.679660627099672 M117.28436417990932 9.679660627099672 C117.11623078026595 10.32082614941619, 116.94809738062258 10.96199167173271, 116.57705160709475 12.376950018449895 M117.28436417990932 9.679660627099672 C117.0098901275451 10.726349146571229, 116.7354160751809 11.773037666042784, 116.57705160709475 12.376950018449895 M116.57705160709475 12.376950018449895 C116.3278823219529 13.127408205562872, 116.07871303681105 13.877866392675852, 115.69837635916457 15.023379867326874 M116.57705160709475 12.376950018449895 C116.3073944768797 13.18911433062856, 116.03773734666464 14.001278642807222, 115.69837635916457 15.023379867326874 M115.69837635916457 15.023379867326874 C115.36716911116963 15.841468173330908, 115.03596186317469 16.65955647933494, 114.65194910118785 17.60807542582413 M115.69837635916457 15.023379867326874 C115.42621284186538 15.695629016979545, 115.15404932456617 16.367878166632217, 114.65194910118785 17.60807542582413 M114.65194910118785 17.60807542582413 C114.31022611856075 18.31767051094981, 113.96850313593366 19.027265596075488, 113.44206982722551 20.120415625476323 M114.65194910118785 17.60807542582413 C114.30576893285235 18.326925952441826, 113.95958876451684 19.045776479059523, 113.44206982722551 20.120415625476323 M113.44206982722551 20.120415625476323 C113.12856228156446 20.67708001887896, 112.81505473590339 21.233744412281595, 112.07371019073256 22.550076721507835 M113.44206982722551 20.120415625476323 C113.02377079931912 20.86314790689375, 112.60547177141275 21.605880188311176, 112.07371019073256 22.550076721507835 M112.07371019073256 22.550076721507835 C111.5494618330107 23.355462979363786, 111.02521347528884 24.160849237219736, 110.5524930749676 24.887074715314366 M112.07371019073256 22.550076721507835 C111.5849228624727 23.30098531549045, 111.09613553421283 24.051893909473065, 110.5524930749676 24.887074715314366 M110.5524930749676 24.887074715314366 C110.08197737416164 25.51752288953219, 109.61146167335568 26.14797106375002, 108.8846694873593 27.121806380854903 M110.5524930749676 24.887074715314366 C109.90285841962834 25.757525970534353, 109.25322376428909 26.62797722575434, 108.8846694873593 27.121806380854903 M108.8846694873593 27.121806380854903 C108.27136447199919 27.842229349940883, 107.65805945663908 28.56265231902686, 107.07709287277623 29.245088726367264 M108.8846694873593 27.121806380854903 C108.36203966734152 27.73571710592701, 107.83940984732372 28.349627830999115, 107.07709287277623 29.245088726367264 M107.07709287277623 29.245088726367264 C106.30239348777245 30.045029445386056, 105.52769410276866 30.844970164404852, 105.13719095125167 31.24819672925114 M107.07709287277623 29.245088726367264 C106.45666931260016 29.885726989970667, 105.83624575242409 30.526365253574067, 105.13719095125167 31.24819672925114 M105.13719095125167 31.24819672925114 C104.71143793133169 31.63485435713485, 104.28568491141172 32.021511985018556, 103.07293519588882 33.12289918905732 M105.13719095125167 31.24819672925114 C104.43295122623408 31.887768614350055, 103.7287115012165 32.52734049944897, 103.07293519588882 33.12289918905732 M103.07293519588882 33.12289918905732 C102.39561076902699 33.66304739511966, 101.71828634216516 34.203195601182, 100.89280807636791 34.861492551256106 M103.07293519588882 33.12289918905732 C102.28645430639116 33.75009676929626, 101.49997341689352 34.377294349535205, 100.89280807636791 34.861492551256106 M100.89280807636791 34.861492551256106 C100.070858749817 35.43484881984515, 99.24890942326608 36.00820508843419, 98.60576820265888 36.45683256279506 M100.89280807636791 34.861492551256106 C100.37851755152533 35.22023935810829, 99.86422702668277 35.57898616496046, 98.60576820265888 36.45683256279506 M98.60576820265888 36.45683256279506 C97.75728039061846 36.971190860721805, 96.90879257857806 37.48554915864856, 96.22121351217129 37.90236362936744 M98.60576820265888 36.45683256279506 C97.85369773514955 36.912742099855855, 97.10162726764023 37.36865163691665, 96.22121351217129 37.90236362936744 M96.22121351217129 37.90236362936744 C95.46473654140544 38.29701718046936, 94.70825957063958 38.69167073157128, 93.74894265161379 39.19214575375523 M96.22121351217129 37.90236362936744 C95.40910199748411 38.32604168639749, 94.59699048279694 38.749719743427534, 93.74894265161379 39.19214575375523 M93.74894265161379 39.19214575375523 C93.17697321726521 39.4453396554709, 92.60500378291665 39.69853355718658, 91.1991147122528 40.32087894455194 M93.74894265161379 39.19214575375523 C92.72926630324916 39.64352622555207, 91.70958995488454 40.09490669734892, 91.1991147122528 40.32087894455194 M91.1991147122528 40.32087894455194 C90.53903199997745 40.563795484406974, 89.8789492877021 40.806712024262005, 88.58220748402752 41.283924994964075 M91.1991147122528 40.32087894455194 C90.20030097349218 40.68845163334884, 89.20148723473154 41.05602432214573, 88.58220748402752 41.283924994964075 M88.58220748402752 41.283924994964075 C87.96968179702088 41.46571940365471, 87.35715611001423 41.64751381234534, 85.90897440006361 42.077326542197774 M88.58220748402752 41.283924994964075 C87.72552254760795 41.538184587262414, 86.86883761118838 41.792444179560746, 85.90897440006361 42.077326542197774 M85.90897440006361 42.077326542197774 C85.0212228387883 42.27995004293853, 84.133471277513 42.48257354367929, 83.19040034850971 42.697823329111344 M85.90897440006361 42.077326542197774 C85.027664305171 42.27847982027117, 84.1463542102784 42.47963309834458, 83.19040034850971 42.697823329111344 M83.19040034850971 42.697823329111344 C82.58022874928531 42.79647114132252, 81.97005715006091 42.8951189535337, 80.43765653327604 43.1428656013112 M83.19040034850971 42.697823329111344 C82.11654215230025 42.8714363943798, 81.04268395609081 43.04504945964825, 80.43765653327604 43.1428656013112 M80.43765653327604 43.1428656013112 C79.69203545069944 43.21479477040682, 78.94641436812282 43.28672393950243, 77.66205456916101 43.41062458463963 M80.43765653327604 43.1428656013112 C79.64310699122976 43.21951484004677, 78.84855744918349 43.29616407878235, 77.66205456916101 43.41062458463963 M77.66205456916101 43.41062458463963 C76.90362480595586 43.43494595095164, 76.1451950427507 43.45926731726365, 74.87500000000001 43.5 M77.66205456916101 43.41062458463963 C76.76689260595222 43.43933068647267, 75.87173064274344 43.46803678830572, 74.87500000000001 43.5 M74.87500000000001 43.5 C74.87500000000001 43.5, 74.875 43.5, 74.875 43.5 M74.87500000000001 43.5 C74.87500000000001 43.5, 74.87500000000001 43.5, 74.875 43.5 M74.875 43.5 C29.62220159360742 43.5, -15.630596812785157 43.5, -74.87499999999999 43.5 M74.875 43.5 C18.754449266788882 43.5, -37.366101466422236 43.5, -74.87499999999999 43.5 M-74.87499999999999 43.5 C-75.98859507112998 43.46428917355017, -77.10219014225997 43.42857834710035, -77.66205456916099 43.41062458463963 M-74.87499999999999 43.5 C-75.74841256915678 43.471991358901576, -76.62182513831358 43.443982717803145, -77.66205456916099 43.41062458463963 M-77.66205456916099 43.41062458463963 C-78.23878666036377 43.35498793342312, -78.81551875156656 43.2993512822066, -80.43765653327603 43.1428656013112 M-77.66205456916099 43.41062458463963 C-78.70832286282096 43.30969234067197, -79.75459115648093 43.20876009670432, -80.43765653327603 43.1428656013112 M-80.43765653327603 43.1428656013112 C-81.09691431225085 43.03628191622698, -81.75617209122566 42.92969823114277, -83.1904003485097 42.697823329111344 M-80.43765653327603 43.1428656013112 C-81.12994645865767 43.03094153496405, -81.82223638403931 42.9190174686169, -83.1904003485097 42.697823329111344 M-83.1904003485097 42.697823329111344 C-84.16267243698104 42.475908569586075, -85.13494452545237 42.25399381006081, -85.90897440006356 42.07732654219778 M-83.1904003485097 42.697823329111344 C-83.80226169455042 42.558169969645974, -84.41412304059114 42.41851661018061, -85.90897440006356 42.07732654219778 M-85.90897440006356 42.07732654219778 C-86.64708479420615 41.85825925163678, -87.38519518834875 41.63919196107578, -88.58220748402748 41.283924994964096 M-85.90897440006356 42.07732654219778 C-86.87374335402188 41.79098818083853, -87.8385123079802 41.50464981947929, -88.58220748402748 41.283924994964096 M-88.58220748402748 41.283924994964096 C-89.28680082989872 41.02462813049399, -89.99139417576997 40.76533126602388, -91.19911471225278 40.32087894455194 M-88.58220748402748 41.283924994964096 C-89.50748878294498 40.94341292375589, -90.43277008186247 40.602900852547684, -91.19911471225278 40.32087894455194 M-91.19911471225278 40.32087894455194 C-91.90501382655852 40.00839834640203, -92.61091294086425 39.695917748252114, -93.74894265161377 39.192145753755234 M-91.19911471225278 40.32087894455194 C-92.1278426149101 39.90975865177994, -93.05657051756742 39.498638359007934, -93.74894265161377 39.192145753755234 M-93.74894265161377 39.192145753755234 C-94.73291879342158 38.6788060308409, -95.71689493522939 38.165466307926565, -96.22121351217127 37.90236362936745 M-93.74894265161377 39.192145753755234 C-94.27589276320742 38.91723621806449, -94.80284287480106 38.642326682373735, -96.22121351217127 37.90236362936745 M-96.22121351217127 37.90236362936745 C-96.7475058000691 37.583322151607, -97.27379808796695 37.26428067384655, -98.60576820265884 36.456832562795086 M-96.22121351217127 37.90236362936745 C-96.91389069962142 37.482458647712185, -97.60656788707156 37.06255366605692, -98.60576820265884 36.456832562795086 M-98.60576820265884 36.456832562795086 C-99.29544581050159 35.97574331922644, -99.98512341834434 35.494654075657785, -100.89280807636788 34.86149255125612 M-98.60576820265884 36.456832562795086 C-99.34935735790157 35.93813695755348, -100.0929465131443 35.419441352311885, -100.89280807636788 34.86149255125612 M-100.89280807636788 34.86149255125612 C-101.42000059092601 34.441070550078024, -101.94719310548413 34.02064854889992, -103.07293519588879 33.12289918905736 M-100.89280807636788 34.86149255125612 C-101.34360990692403 34.501990087728124, -101.79441173748017 34.14248762420012, -103.07293519588879 33.12289918905736 M-103.07293519588879 33.12289918905736 C-103.51237643321709 32.7238102842938, -103.95181767054538 32.32472137953024, -105.13719095125164 31.24819672925117 M-103.07293519588879 33.12289918905736 C-103.71497952206064 32.53981151959006, -104.3570238482325 31.956723850122764, -105.13719095125164 31.24819672925117 M-105.13719095125164 31.24819672925117 C-105.71497473149645 30.65158753921784, -106.29275851174125 30.054978349184513, -107.07709287277623 29.245088726367282 M-105.13719095125164 31.24819672925117 C-105.77408368811597 30.590552688572593, -106.4109764249803 29.93290864789402, -107.07709287277623 29.245088726367282 M-107.07709287277623 29.245088726367282 C-107.44946380135438 28.80768064515331, -107.82183472993252 28.37027256393934, -108.88466948735929 27.121806380854917 M-107.07709287277623 29.245088726367282 C-107.49739698891091 28.751375595573766, -107.9177011050456 28.257662464780253, -108.88466948735929 27.121806380854917 M-108.88466948735929 27.121806380854917 C-109.51577762219424 26.276178975309954, -110.1468857570292 25.43055156976499, -110.55249307496757 24.887074715314395 M-108.88466948735929 27.121806380854917 C-109.2451841041274 26.63874963794288, -109.60569872089553 26.155692895030842, -110.55249307496757 24.887074715314395 M-110.55249307496757 24.887074715314395 C-111.03594025553177 24.144370022222766, -111.51938743609597 23.401665329131134, -112.07371019073254 22.550076721507864 M-110.55249307496757 24.887074715314395 C-111.12693878949109 24.004571837533447, -111.7013845040146 23.122068959752504, -112.07371019073254 22.550076721507864 M-112.07371019073254 22.550076721507864 C-112.46982574397268 21.846733445680762, -112.8659412972128 21.14339016985366, -113.44206982722551 20.120415625476337 M-112.07371019073254 22.550076721507864 C-112.38021241843877 22.005850979499403, -112.68671464614499 21.461625237490942, -113.44206982722551 20.120415625476337 M-113.44206982722551 20.120415625476337 C-113.79317680983618 19.391334463599325, -114.14428379244686 18.662253301722313, -114.65194910118784 17.608075425824147 M-113.44206982722551 20.120415625476337 C-113.77433245349286 19.43046517275087, -114.1065950797602 18.740514720025406, -114.65194910118784 17.608075425824147 M-114.65194910118784 17.608075425824147 C-114.87397308249314 17.059671899458383, -115.09599706379845 16.51126837309262, -115.69837635916457 15.023379867326907 M-114.65194910118784 17.608075425824147 C-115.00219349024573 16.742965013336555, -115.35243787930362 15.877854600848966, -115.69837635916457 15.023379867326907 M-115.69837635916457 15.023379867326907 C-115.99798386511019 14.12100979539213, -116.29759137105579 13.218639723457354, -116.57705160709475 12.37695001844991 M-115.69837635916457 15.023379867326907 C-115.90301269701243 14.407047822101816, -116.1076490348603 13.790715776876723, -116.57705160709475 12.37695001844991 M-116.57705160709475 12.37695001844991 C-116.83360461086632 11.39860222429372, -117.09015761463787 10.420254430137529, -117.28436417990932 9.679660627099686 M-116.57705160709475 12.37695001844991 C-116.73393887290679 11.778670878537444, -116.89082613871884 11.180391738624975, -117.28436417990932 9.679660627099686 M-117.28436417990932 9.679660627099686 C-117.40487062251955 9.060885513341823, -117.52537706512979 8.442110399583962, -117.81740757852859 6.942595433952017 M-117.28436417990932 9.679660627099686 C-117.48103224623286 8.669811672338872, -117.6777003125564 7.659962717578059, -117.81740757852859 6.942595433952017 M-117.81740757852859 6.942595433952017 C-117.92042184915098 6.143637093473336, -118.02343611977336 5.344678752994653, -118.17399141329011 4.17700162698419 M-117.81740757852859 6.942595433952017 C-117.8960102781246 6.3329684177439, -117.97461297772064 5.723341401535784, -118.17399141329011 4.17700162698419 M-118.17399141329011 4.17700162698419 C-118.22860983795228 3.326275575672101, -118.28322826261444 2.4755495243600127, -118.35265040472993 1.394243624367005 M-118.17399141329011 4.17700162698419 C-118.23674118623691 3.1996232626327474, -118.29949095918371 2.2222448982813052, -118.35265040472993 1.394243624367005 M-118.35265040472993 1.394243624367005 C-118.35265040472993 0.6807540740556542, -118.35265040472993 -0.032735476255696616, -118.35265040472993 -1.394243624366984 M-118.35265040472993 1.394243624367005 C-118.35265040472993 0.4863723093679304, -118.35265040472993 -0.4214990056311443, -118.35265040472993 -1.394243624366984 M-118.35265040472993 -1.394243624366984 C-118.29644206806879 -2.269733838416947, -118.24023373140766 -3.1452240524669097, -118.17399141329012 -4.177001626984129 M-118.35265040472993 -1.394243624366984 C-118.28277275644194 -2.482644400674819, -118.21289510815396 -3.571045176982655, -118.17399141329012 -4.177001626984129 M-118.17399141329012 -4.177001626984129 C-118.05751191800401 -5.080393590945256, -117.9410324227179 -5.983785554906383, -117.81740757852859 -6.942595433951997 M-118.17399141329012 -4.177001626984129 C-118.08816218887067 -4.84267614268405, -118.00233296445121 -5.508350658383971, -117.81740757852859 -6.942595433951997 M-117.81740757852859 -6.942595433951997 C-117.65522619574521 -7.775362557497236, -117.49304481296183 -8.608129681042476, -117.28436417990932 -9.679660627099667 M-117.81740757852859 -6.942595433951997 C-117.68265804903596 -7.634505788573454, -117.54790851954334 -8.326416143194912, -117.28436417990932 -9.679660627099667 M-117.28436417990932 -9.679660627099667 C-117.01830683679022 -10.694252586394768, -116.7522494936711 -11.70884454568987, -116.57705160709475 -12.37695001844989 M-117.28436417990932 -9.679660627099667 C-117.08121245791165 -10.454366189590093, -116.87806073591396 -11.229071752080522, -116.57705160709475 -12.37695001844989 M-116.57705160709475 -12.37695001844989 C-116.38986118163147 -12.940737755201265, -116.20267075616819 -13.50452549195264, -115.6983763591646 -15.023379867326852 M-116.57705160709475 -12.37695001844989 C-116.39191865006441 -12.934540988094332, -116.20678569303406 -13.492131957738774, -115.6983763591646 -15.023379867326852 M-115.6983763591646 -15.023379867326852 C-115.46137148452314 -15.608786489868772, -115.22436660988168 -16.19419311241069, -114.65194910118785 -17.608075425824126 M-115.6983763591646 -15.023379867326852 C-115.39881702860741 -15.763297205388756, -115.09925769805022 -16.50321454345066, -114.65194910118785 -17.608075425824126 M-114.65194910118785 -17.608075425824126 C-114.35450246700135 -18.2257297260508, -114.05705583281487 -18.843384026277473, -113.44206982722551 -20.12041562547632 M-114.65194910118785 -17.608075425824126 C-114.3803900231053 -18.171973661896, -114.10883094502275 -18.735871897967876, -113.44206982722551 -20.12041562547632 M-113.44206982722551 -20.12041562547632 C-113.12892406892897 -20.676437628778313, -112.81577831063242 -21.23245963208031, -112.07371019073256 -22.55007672150785 M-113.44206982722551 -20.12041562547632 C-113.07605642964789 -20.77030947575084, -112.71004303207027 -21.420203326025362, -112.07371019073256 -22.55007672150785 M-112.07371019073256 -22.55007672150785 C-111.75504622534034 -23.039630145606385, -111.43638225994812 -23.529183569704923, -110.55249307496757 -24.88707471531438 M-112.07371019073256 -22.55007672150785 C-111.6976072271407 -23.1278718713717, -111.32150426354882 -23.70566702123555, -110.55249307496757 -24.88707471531438 M-110.55249307496757 -24.88707471531438 C-110.02953774356962 -25.587787217176857, -109.50658241217167 -26.288499719039333, -108.8846694873593 -27.121806380854903 M-110.55249307496757 -24.88707471531438 C-110.06057425334905 -25.546201121556628, -109.56865543173053 -26.205327527798875, -108.8846694873593 -27.121806380854903 M-108.8846694873593 -27.121806380854903 C-108.4171107546686 -27.67102747311898, -107.9495520219779 -28.220248565383052, -107.07709287277623 -29.245088726367264 M-108.8846694873593 -27.121806380854903 C-108.26184390278232 -27.85341275227876, -107.63901831820532 -28.58501912370262, -107.07709287277623 -29.245088726367264 M-107.07709287277623 -29.245088726367264 C-106.43997297463974 -29.902967329709643, -105.80285307650324 -30.560845933052022, -105.13719095125168 -31.248196729251127 M-107.07709287277623 -29.245088726367264 C-106.37737458638074 -29.96760530501031, -105.67765629998526 -30.69012188365335, -105.13719095125168 -31.248196729251127 M-105.13719095125168 -31.248196729251127 C-104.54377695057721 -31.787119623789614, -103.95036294990273 -32.3260425183281, -103.07293519588883 -33.12289918905732 M-105.13719095125168 -31.248196729251127 C-104.44117996964432 -31.88029548730549, -103.74516898803698 -32.51239424535985, -103.07293519588883 -33.12289918905732 M-103.07293519588883 -33.12289918905732 C-102.2303706998798 -33.79482195304164, -101.38780620387078 -34.46674471702595, -100.89280807636791 -34.861492551256106 M-103.07293519588883 -33.12289918905732 C-102.54596772670119 -33.54314172254117, -102.01900025751355 -33.96338425602502, -100.89280807636791 -34.861492551256106 M-100.89280807636791 -34.861492551256106 C-100.31630348118867 -35.26363720037145, -99.73979888600941 -35.6657818494868, -98.6057682026589 -36.45683256279505 M-100.89280807636791 -34.861492551256106 C-100.00496147288683 -35.480815907584486, -99.11711486940577 -36.10013926391287, -98.6057682026589 -36.45683256279505 M-98.6057682026589 -36.45683256279505 C-98.02010002669803 -36.811868052830754, -97.43443185073718 -37.16690354286646, -96.2212135121713 -37.902363629367436 M-98.6057682026589 -36.45683256279505 C-97.79760381032959 -36.94674656672621, -96.98943941800029 -37.43666057065737, -96.2212135121713 -37.902363629367436 M-96.2212135121713 -37.902363629367436 C-95.69659675368877 -38.176055856234704, -95.17197999520621 -38.44974808310198, -93.74894265161379 -39.19214575375523 M-96.2212135121713 -37.902363629367436 C-95.56509628181124 -38.24465956818314, -94.90897905145117 -38.58695550699884, -93.74894265161379 -39.19214575375523 M-93.74894265161379 -39.19214575375523 C-92.86191458163844 -39.58480676758051, -91.9748865116631 -39.97746778140579, -91.1991147122528 -40.320878944551936 M-93.74894265161379 -39.19214575375523 C-92.97935777511942 -39.53281814965503, -92.20977289862506 -39.87349054555484, -91.1991147122528 -40.320878944551936 M-91.1991147122528 -40.320878944551936 C-90.27269197156045 -40.66181107688465, -89.34626923086812 -41.00274320921738, -88.58220748402753 -41.283924994964075 M-91.1991147122528 -40.320878944551936 C-90.55640747287268 -40.55740114976441, -89.91370023349256 -40.79392335497689, -88.58220748402753 -41.283924994964075 M-88.58220748402753 -41.283924994964075 C-87.74851634232407 -41.53136014968756, -86.91482520062061 -41.77879530441105, -85.90897440006361 -42.07732654219777 M-88.58220748402753 -41.283924994964075 C-88.02215358090137 -41.45014605362899, -87.46209967777523 -41.61636711229391, -85.90897440006361 -42.07732654219777 M-85.90897440006361 -42.07732654219777 C-85.07020017002077 -42.26877128669167, -84.23142593997792 -42.46021603118557, -83.19040034850971 -42.69782332911134 M-85.90897440006361 -42.07732654219777 C-85.19629915865231 -42.23999001540932, -84.483623917241 -42.40265348862088, -83.19040034850971 -42.69782332911134 M-83.19040034850971 -42.69782332911134 C-82.37406869215224 -42.82980150056467, -81.55773703579477 -42.961779672018, -80.43765653327604 -43.1428656013112 M-83.19040034850971 -42.69782332911134 C-82.57549203682602 -42.79723693625918, -81.96058372514233 -42.89665054340702, -80.43765653327604 -43.1428656013112 M-80.43765653327604 -43.1428656013112 C-79.49288714134792 -43.23400636829907, -78.54811774941982 -43.32514713528695, -77.66205456916101 -43.41062458463963 M-80.43765653327604 -43.1428656013112 C-79.76825511565235 -43.20744195099637, -79.09885369802868 -43.27201830068153, -77.66205456916101 -43.41062458463963 M-77.66205456916101 -43.41062458463963 C-77.0756125638567 -43.42943063830962, -76.48917055855236 -43.448236691979616, -74.87500000000001 -43.5 M-77.66205456916101 -43.41062458463963 C-76.60460390688168 -43.444534969176075, -75.54715324460234 -43.47844535371252, -74.87500000000001 -43.5 M-74.87500000000001 -43.5 C-74.87500000000001 -43.5, -74.875 -43.5, -74.875 -43.5 M-74.87500000000001 -43.5 C-74.87500000000001 -43.5, -74.875 -43.5, -74.875 -43.5" stroke="#9370DB" stroke-width="1.3" fill="none" stroke-dasharray="0 0" style=""/></g><g class="label" style="" transform="translate(-100, -36)"><rect/><foreignObject width="200" height="72"><div xmlns="http://www.w3.org/1999/xhtml" style="display: table; white-space: break-spaces; line-height: 1.5; max-width: 200px; text-align: center; width: 200px;"><span class="nodeLabel"><p>Bajutsu core<br />deterministic · app-agnostic</p></span></div></foreignObject></g></g><g class="node default" id="my-svg-flowchart-reach-1" data-look="classic" transform="translate(424.70530700683594, 83)"><rect class="basic label-container" style="" x="-130" y="-75" width="260" height="150"/><g class="label" style="" transform="translate(-100, -60)"><rect/><foreignObject width="200" height="120"><div xmlns="http://www.w3.org/1999/xhtml" style="display: table; white-space: break-spaces; line-height: 1.5; max-width: 200px; text-align: center; width: 200px;"><span class="nodeLabel"><p>REACH<br />more platforms / surfaces<br />Web · Android · Flutter / hybrid<br />→ multi-platform.md</p></span></div></foreignObject></g></g><g class="node default" id="my-svg-flowchart-scale-2" data-look="classic" transform="translate(424.70530700683594, 283)"><rect class="basic label-container" style="" x="-130" y="-75" width="260" height="150"/><g class="label" style="" transform="translate(-100, -60)"><rect/><foreignObject width="200" height="120"><div xmlns="http://www.w3.org/1999/xhtml" style="display: table; white-space: break-spaces; line-height: 1.5; max-width: 200px; text-align: center; width: 200px;"><span class="nodeLabel"><p>SCALE &amp; COLLABORATION<br />hosted / self-hosted service · MCP<br />→ roadmap: Hosting (BE-0015 / BE-0016)</p></span></div></foreignObject></g></g><g class="node default" id="my-svg-flowchart-authoring-3" data-look="classic" transform="translate(424.70530700683594, 495)"><rect class="basic label-container" style="" x="-130" y="-87" width="260" height="174"/><g class="label" style="" transform="translate(-100, -72)"><rect/><foreignObject width="200" height="144"><div xmlns="http://www.w3.org/1999/xhtml" style="display: table; white-space: break-spaces; line-height: 1.5; max-width: 200px; text-align: center; width: 200px;"><span class="nodeLabel"><p>AUTHORING &amp; MAINTENANCE<br />GUI editor · capture ·<br />visual-regression · self-healing triage<br />→ roadmap §3, §6, §10</p></span></div></foreignObject></g></g></g></g></g><defs><filter id="my-svg-drop-shadow" height="130%" width="130%"><feDropShadow dx="4" dy="4" stdDeviation="0" flood-opacity="0.06" flood-color="#000000"/></filter></defs><defs><filter id="my-svg-drop-shadow-small" height="150%" width="150%"><feDropShadow dx="2" dy="2" stdDeviation="0" flood-opacity="0.06" flood-color="#000000"/></filter></defs></svg>