<svg id="my-svg" width="100%" xmlns="http://www.w3.org/2000/svg" xmlns:xlink="http://www.w3.org/1999/xlink" class="flowchart" style="max-width: 324.272px; background-color: white;" viewBox="0 0 324.2723693847656 801" role="graphics-document document" aria-roledescription="flowchart-v2"><style>#my-svg{font-family:"trebuchet ms",verdana,arial,sans-serif;font-size:16px;fill:#333;}@keyframes edge-animation-frame{from{stroke-dashoffset:0;}}@keyframes dash{to{stroke-dashoffset:0;}}#my-svg .edge-animation-slow{stroke-dasharray:9,5!important;stroke-dashoffset:900;animation:dash 50s linear infinite;stroke-linecap:round;}#my-svg .edge-animation-fast{stroke-dasharray:9,5!important;stroke-dashoffset:900;animation:dash 20s linear infinite;stroke-linecap:round;}#my-svg .error-icon{fill:#552222;}#my-svg .error-text{fill:#552222;stroke:#552222;}#my-svg .edge-thickness-normal{stroke-width:1px;}#my-svg .edge-thickness-thick{stroke-width:3.5px;}#my-svg .edge-pattern-solid{stroke-dasharray:0;}#my-svg .edge-thickness-invisible{stroke-width:0;fill:none;}#my-svg .edge-pattern-dashed{stroke-dasharray:3;}#my-svg .edge-pattern-dotted{stroke-dasharray:2;}#my-svg .marker{fill:#333333;stroke:#333333;}#my-svg .marker.cross{stroke:#333333;}#my-svg svg{font-family:"trebuchet ms",verdana,arial,sans-serif;font-size:16px;}#my-svg p{margin:0;}#my-svg .label{font-family:"trebuchet ms",verdana,arial,sans-serif;color:#333;}#my-svg .cluster-label text{fill:#333;}#my-svg .cluster-label span{color:#333;}#my-svg .cluster-label span p{background-color:transparent;}#my-svg .label text,#my-svg span{fill:#333;color:#333;}#my-svg .node rect,#my-svg .node circle,#my-svg .node ellipse,#my-svg .node polygon,#my-svg .node path{fill:#ECECFF;stroke:#9370DB;stroke-width:1px;}#my-svg .rough-node .label text,#my-svg .node .label text,#my-svg .image-shape .label,#my-svg .icon-shape .label{text-anchor:middle;}#my-svg .node .katex path{fill:#000;stroke:#000;stroke-width:1px;}#my-svg .rough-node .label,#my-svg .node .label,#my-svg .image-shape .label,#my-svg .icon-shape .label{text-align:center;}#my-svg .node.clickable{cursor:pointer;}#my-svg .root .anchor path{fill:#333333!important;stroke-width:0;stroke:#333333;}#my-svg .arrowheadPath{fill:#333333;}#my-svg .edgePaths .path{stroke:#333333;stroke-width:1px;}#my-svg .flowchart-link{stroke:#333333;fill:none;}#my-svg .edgeLabel{background-color:rgba(232,232,232, 0.8);text-align:center;}#my-svg .edgeLabel p{background-color:rgba(232,232,232, 0.8);}#my-svg .edgeLabel rect{opacity:0.5;background-color:rgba(232,232,232, 0.8);fill:rgba(232,232,232, 0.8);}#my-svg .labelBkg{background-color:rgba(232, 232, 232, 0.5);}#my-svg .cluster rect{fill:#ffffde;stroke:#aaaa33;stroke-width:1px;}#my-svg .cluster text{fill:#333;}#my-svg .cluster span{color:#333;}#my-svg .node .collapsed-indicator{fill:#aaaa33;stroke:none;opacity:0.6;}#my-svg .node .collapsed-separator{stroke:#aaaa33;stroke-width:0.75px;}#my-svg div.mermaidTooltip{position:absolute;text-align:center;max-width:200px;padding:2px;font-family:"trebuchet ms",verdana,arial,sans-serif;font-size:12px;background:hsl(80, 100%, 96.2745098039%);border:1px solid #aaaa33;border-radius:2px;pointer-events:none;z-index:100;}#my-svg .flowchartTitleText{text-anchor:middle;font-size:18px;fill:#333;}#my-svg rect.text{fill:none;stroke-width:0;}#my-svg .icon-shape,#my-svg .image-shape{background-color:rgba(232,232,232, 0.8);text-align:center;}#my-svg .icon-shape p,#my-svg .image-shape p{background-color:rgba(232,232,232, 0.8);padding:2px;}#my-svg .icon-shape .label rect,#my-svg .image-shape .label rect{opacity:0.5;background-color:rgba(232,232,232, 0.8);fill:rgba(232,232,232, 0.8);}#my-svg .label-icon{display:inline-block;height:1em;overflow:visible;vertical-align:-0.125em;}#my-svg .node .label-icon path{fill:currentColor;stroke:revert;stroke-width:revert;}#my-svg .node .neo-node{stroke:#9370DB;}#my-svg [data-look="neo"].node rect,#my-svg [data-look="neo"].cluster rect,#my-svg [data-look="neo"].node polygon{stroke:#9370DB;filter:drop-shadow(1px 2px 2px rgba(185, 185, 185, 1));}#my-svg [data-look="neo"].swimlane.cluster rect{filter:none;}#my-svg [data-look="neo"].node path{stroke:#9370DB;stroke-width:1px;}#my-svg [data-look="neo"].node .outer-path{filter:drop-shadow(1px 2px 2px rgba(185, 185, 185, 1));}#my-svg [data-look="neo"].node .neo-line path{stroke:#9370DB;filter:none;}#my-svg [data-look="neo"].node circle{stroke:#9370DB;filter:drop-shadow(1px 2px 2px rgba(185, 185, 185, 1));}#my-svg [data-look="neo"].node circle .state-start{fill:#000000;}#my-svg [data-look="neo"].icon-shape .icon{fill:#9370DB;filter:drop-shadow(1px 2px 2px rgba(185, 185, 185, 1));}#my-svg [data-look="neo"].icon-shape .icon-neo path{stroke:#9370DB;filter:drop-shadow(1px 2px 2px rgba(185, 185, 185, 1));}#my-svg :root{--mermaid-font-family:"trebuchet ms",verdana,arial,sans-serif;}</style><g><marker id="my-svg_flowchart-v2-pointEnd" class="marker flowchart-v2" viewBox="0 0 10 10" refX="5" refY="5" markerUnits="userSpaceOnUse" markerWidth="8" markerHeight="8" orient="auto"><path d="M 0 0 L 10 5 L 0 10 z" class="arrowMarkerPath" style="stroke-width: 1; stroke-dasharray: 1, 0;"/></marker><marker id="my-svg_flowchart-v2-pointStart" class="marker flowchart-v2" viewBox="0 0 10 10" refX="4.5" refY="5" markerUnits="userSpaceOnUse" markerWidth="8" markerHeight="8" orient="auto"><path d="M 0 5 L 10 10 L 10 0 z" class="arrowMarkerPath" style="stroke-width: 1; stroke-dasharray: 1, 0;"/></marker><marker id="my-svg_flowchart-v2-pointEnd-margin" class="marker flowchart-v2" viewBox="0 0 11.5 14" refX="11.5" refY="7" markerUnits="userSpaceOnUse" markerWidth="10.5" markerHeight="14" orient="auto"><path d="M 0 0 L 11.5 7 L 0 14 z" class="arrowMarkerPath" style="stroke-width: 0; stroke-dasharray: 1, 0;"/></marker><marker id="my-svg_flowchart-v2-pointStart-margin" class="marker flowchart-v2" viewBox="0 0 11.5 14" refX="1" refY="7" markerUnits="userSpaceOnUse" markerWidth="11.5" markerHeight="14" orient="auto"><polygon points="0,7 11.5,14 11.5,0" class="arrowMarkerPath" style="stroke-width: 0; stroke-dasharray: 1, 0;"/></marker><marker id="my-svg_flowchart-v2-circleEnd" class="marker flowchart-v2" viewBox="0 0 10 10" refX="11" refY="5" markerUnits="userSpaceOnUse" markerWidth="11" markerHeight="11" orient="auto"><circle cx="5" cy="5" r="5" class="arrowMarkerPath" style="stroke-width: 1; stroke-dasharray: 1, 0;"/></marker><marker id="my-svg_flowchart-v2-circleStart" class="marker flowchart-v2" viewBox="0 0 10 10" refX="-1" refY="5" markerUnits="userSpaceOnUse" markerWidth="11" markerHeight="11" orient="auto"><circle cx="5" cy="5" r="5" class="arrowMarkerPath" style="stroke-width: 1; stroke-dasharray: 1, 0;"/></marker><marker id="my-svg_flowchart-v2-circleEnd-margin" class="marker flowchart-v2" viewBox="0 0 10 10" refY="5" refX="12.25" markerUnits="userSpaceOnUse" markerWidth="14" markerHeight="14" orient="auto"><circle cx="5" cy="5" r="5" class="arrowMarkerPath" style="stroke-width: 0; stroke-dasharray: 1, 0;"/></marker><marker id="my-svg_flowchart-v2-circleStart-margin" class="marker flowchart-v2" viewBox="0 0 10 10" refX="-2" refY="5" markerUnits="userSpaceOnUse" markerWidth="14" markerHeight="14" orient="auto"><circle cx="5" cy="5" r="5" class="arrowMarkerPath" style="stroke-width: 0; stroke-dasharray: 1, 0;"/></marker><marker id="my-svg_flowchart-v2-crossEnd" class="marker cross flowchart-v2" viewBox="0 0 11 11" refX="12" refY="5.2" markerUnits="userSpaceOnUse" markerWidth="11" markerHeight="11" orient="auto"><path d="M 1,1 l 9,9 M 10,1 l -9,9" class="arrowMarkerPath" style="stroke-width: 2; stroke-dasharray: 1, 0;"/></marker><marker id="my-svg_flowchart-v2-crossStart" class="marker cross flowchart-v2" viewBox="0 0 11 11" refX="-1" refY="5.2" markerUnits="userSpaceOnUse" markerWidth="11" markerHeight="11" orient="auto"><path d="M 1,1 l 9,9 M 10,1 l -9,9" class="arrowMarkerPath" style="stroke-width: 2; stroke-dasharray: 1, 0;"/></marker><marker id="my-svg_flowchart-v2-crossEnd-margin" class="marker cross flowchart-v2" viewBox="0 0 15 15" refX="17.7" refY="7.5" markerUnits="userSpaceOnUse" markerWidth="12" markerHeight="12" orient="auto"><path d="M 1,1 L 14,14 M 1,14 L 14,1" class="arrowMarkerPath" style="stroke-width: 2.5;"/></marker><marker id="my-svg_flowchart-v2-crossStart-margin" class="marker cross flowchart-v2" viewBox="0 0 15 15" refX="-3.5" refY="7.5" markerUnits="userSpaceOnUse" markerWidth="12" markerHeight="12" orient="auto"><path d="M 1,1 L 14,14 M 1,14 L 14,1" class="arrowMarkerPath" style="stroke-width: 2.5; stroke-dasharray: 1, 0;"/></marker><g class="root"><g class="clusters"/><g class="edgePaths"><path d="M162.723,47.5L162.639,51.583C162.556,55.667,162.389,63.833,162.306,71.417C162.223,79,162.223,86,162.223,89.5L162.223,93" id="my-svg-L_idea_ideation_0" class="edge-thickness-normal edge-pattern-solid edge-thickness-normal edge-pattern-solid flowchart-link" style=";" data-edge="true" data-et="edge" data-id="L_idea_ideation_0" data-points="W3sieCI6MTYyLjcyMjY1NjI1LCJ5Ijo0Ny41MDAwMDAwMDAwMDAwMX0seyJ4IjoxNjIuMjIyNjU2MjUsInkiOjcyfSx7IngiOjE2Mi4yMjI2NTYyNSwieSI6OTd9XQ==" data-look="classic" marker-end="url(#my-svg_flowchart-v2-pointEnd)"/><path d="M120.277,199L113.56,207.167C106.844,215.333,93.41,231.667,93.595,247.585C93.779,263.504,107.582,279.008,114.484,286.76L121.385,294.512" id="my-svg-L_ideation_proposal_0" class="edge-thickness-normal edge-pattern-solid edge-thickness-normal edge-pattern-solid flowchart-link" style=";" data-edge="true" data-et="edge" data-id="L_ideation_proposal_0" data-points="W3sieCI6MTIwLjI3NzE0ODQzNzUsInkiOjE5OX0seyJ4Ijo3OS45NzY1NjI1LCJ5IjoyNDh9LHsieCI6MTI0LjA0NDc2MzUxMzUxMzUyLCJ5IjoyOTcuNX1d" data-look="classic" marker-end="url(#my-svg_flowchart-v2-pointEnd)"/><path d="M201.401,297.5L208.579,289.25C215.757,281,230.113,264.5,230.997,248.598C231.882,232.696,219.296,217.393,213.002,209.741L206.709,202.089" id="my-svg-L_proposal_ideation_0" class="edge-thickness-normal edge-pattern-dotted edge-thickness-normal edge-pattern-solid flowchart-link" style=";" data-edge="true" data-et="edge" data-id="L_proposal_ideation_0" data-points="W3sieCI6MjAxLjQwMDU0ODk4NjQ4NjQ4LCJ5IjoyOTcuNX0seyJ4IjoyNDQuNDY4NzUsInkiOjI0OH0seyJ4IjoyMDQuMTY4MTY0MDYyNSwieSI6MTk5fV0=" data-look="classic" marker-end="url(#my-svg_flowchart-v2-pointEnd)"/><path d="M162.723,384.5L162.639,390.583C162.556,396.667,162.389,408.833,162.306,420.417C162.223,432,162.223,443,162.223,448.5L162.223,454" id="my-svg-L_proposal_implement_0" class="edge-thickness-normal edge-pattern-solid edge-thickness-normal edge-pattern-solid flowchart-link" style=";" data-edge="true" data-et="edge" data-id="L_proposal_implement_0" data-points="W3sieCI6MTYyLjcyMjY1NjI1LCJ5IjozODQuNX0seyJ4IjoxNjIuMjIyNjU2MjUsInkiOjQyMX0seyJ4IjoxNjIuMjIyNjU2MjUsInkiOjQ1OH1d" data-look="classic" marker-end="url(#my-svg_flowchart-v2-pointEnd)"/><path d="M162.223,560L162.223,572.167C162.223,584.333,162.223,608.667,162.301,632.417C162.38,656.167,162.538,679.333,162.617,690.917L162.695,702.5" id="my-svg-L_implement_implemented_0" class="edge-thickness-normal edge-pattern-solid edge-thickness-normal edge-pattern-solid flowchart-link" style=";" data-edge="true" data-et="edge" data-id="L_implement_implemented_0" data-points="W3sieCI6MTYyLjIyMjY1NjI1LCJ5Ijo1NjB9LHsieCI6MTYyLjIyMjY1NjI1LCJ5Ijo2MzN9LHsieCI6MTYyLjcyMjY1NjI1LCJ5Ijo3MDYuNX1d" data-look="classic" marker-end="url(#my-svg_flowchart-v2-pointEnd)"/></g><g class="edgeLabels"><g class="edgeLabel"><g class="label" data-id="L_idea_ideation_0" transform="translate(0, 0)"><foreignObject width="0" height="0"><div xmlns="http://www.w3.org/1999/xhtml" class="labelBkg" style="display: table-cell; white-space: nowrap; line-height: 1.5; max-width: 200px; text-align: center;"><span class="edgeLabel"></span></div></foreignObject></g></g><g class="edgeLabel" transform="translate(79.9765625, 248)"><g class="label" data-id="L_ideation_proposal_0" transform="translate(-71.9765625, -24)"><foreignObject width="143.953125" height="48"><div xmlns="http://www.w3.org/1999/xhtml" class="labelBkg" style="display: table-cell; white-space: nowrap; line-height: 1.5; max-width: 200px; text-align: center;"><span class="edgeLabel"><p>BE-XXXX 提案を起草<br />（両言語）</p></span></div></foreignObject></g></g><g class="edgeLabel" transform="translate(243.75675, 248.81833)"><g class="label" data-id="L_proposal_ideation_0" transform="translate(-72.515625, -24)"><foreignObject width="145.03125" height="48"><div xmlns="http://www.w3.org/1999/xhtml" class="labelBkg" style="display: table-cell; white-space: nowrap; line-height: 1.5; max-width: 200px; text-align: center;"><span class="edgeLabel"><p>CI が正式 ID を採番<br />(scripts/allocate_…)</p></span></div></foreignObject></g></g><g class="edgeLabel" transform="translate(162.22265625, 421)"><g class="label" data-id="L_proposal_implement_0" transform="translate(-64, -12)"><foreignObject width="128" height="24"><div xmlns="http://www.w3.org/1999/xhtml" class="labelBkg" style="display: table-cell; white-space: nowrap; line-height: 1.5; max-width: 200px; text-align: center;"><span class="edgeLabel"><p>提案が仕様になる</p></span></div></foreignObject></g></g><g class="edgeLabel" transform="translate(162.22265625, 633)"><g class="label" data-id="L_implement_implemented_0" transform="translate(-100, -48)"><foreignObject width="200" height="96"><div xmlns="http://www.w3.org/1999/xhtml" class="labelBkg" style="display: table; white-space: break-spaces; line-height: 1.5; max-width: 200px; text-align: center; width: 200px;"><span class="edgeLabel"><p>計画 → 実装 → テスト<br />レビュー → ゲート；<br />Status だけを変え、パスは動かさない</p></span></div></foreignObject></g></g></g><g class="nodes"><g class="node default" id="my-svg-flowchart-idea-0" data-look="classic" transform="translate(162.22265625, 27.5)"><g class="basic label-container outer-path"><path d="M-56.2421875 -19.5 C-22.79806850685074 -19.5, 10.64605048629852 -19.5, 56.2421875 -19.5 C56.2421875 -19.5, 56.2421875 -19.5, 56.2421875 -19.5 C56.636633851470314 -19.487350873251593, 57.03108020294062 -19.47470174650319, 57.4915567896239 -19.45993515863156 C57.879301589262056 -19.422529884141813, 58.26704638890021 -19.38512460965207, 58.735792152847864 -19.3399052695533 C59.15988898102718 -19.27134058329329, 59.5839858092065 -19.20277589703328, 59.96978075967676 -19.140403561325776 C60.287694423627094 -19.067841842109647, 60.60560808757743 -18.995280122893522, 61.18845188623539 -18.862249829261074 C61.546173101369284 -18.75608005032631, 61.90389431650318 -18.649910271391548, 62.386797751460605 -18.50658706670804 C62.6237149807261 -18.419399336299477, 62.86063220999159 -18.33221160589092, 63.5598940951478 -18.074876768247425 C63.952803420351685 -17.900947465220682, 64.34571274555557 -17.727018162193943, 64.70292041279238 -17.568892924097174 C64.95354115551069 -17.43814424315128, 65.20416189822899 -17.30739556220539, 65.81117976407678 -16.990714730406097 C66.19519040726286 -16.75792522180967, 66.57920105044892 -16.52513571321325, 66.8801180736057 -16.342718045390892 C67.19561369980627 -16.122641954138906, 67.51110932600685 -15.902565862886922, 67.90534284457871 -15.627565626425154 C68.23977813269894 -15.36086238384605, 68.57421342081918 -15.094159141266944, 68.88264120850187 -14.848196188198123 C69.20162495071907 -14.5585035933638, 69.52060869293625 -14.268810998529478, 69.80799723676799 -14.007812326905688 C70.06094944663882 -13.746618402451404, 70.31390165650963 -13.485424477997118, 70.67760844296865 -13.10986736009568 C70.93758626144675 -12.804482621354355, 71.19756407992486 -12.49909788261303, 71.48790140812658 -12.158051136245305 C71.7611510698703 -11.79192148306501, 72.03440073161403 -11.425791829884718, 72.23554646464063 -11.156274872382312 C72.39647687260947 -10.909042549876842, 72.55740728057832 -10.661810227371374, 72.91747137860425 -10.108655082055241 C73.09308892321562 -9.79682834839301, 73.268706467827 -9.485001614730779, 73.5308739742735 -9.019496659696287 C73.65224152857542 -8.767474336338708, 73.77360908287733 -8.51545201298113, 74.07323364880834 -7.893275190886684 C74.24102805290147 -7.478819768692545, 74.4088224569946 -7.064364346498406, 74.54232172997033 -6.734618561215508 C74.69933730171797 -6.261712676145561, 74.85635287346564 -5.788806791075614, 74.93621063421489 -5.548287939305138 C75.05835808799033 -5.08248675901805, 75.18050554176575 -4.616685578730961, 75.25328178754556 -4.339158212148133 C75.33619049999876 -3.9134394964634835, 75.41909921245198 -3.4877207807788344, 75.49223227658177 -3.1121979531509023 C75.54064479594878 -2.7367200130737452, 75.58905731531577 -2.361242072996588, 75.65208020250937 -1.872449005199798 C75.68336842800969 -1.3851096376313727, 75.71465665350999 -0.8977702700629476, 75.73216871591342 -0.6250057626472757 C75.73216871591342 -0.16553811499554033, 75.73216871591342 0.29392953265619504, 75.73216871591342 0.625005762647271 C75.70200584445026 1.094816832717642, 75.6718429729871 1.5646279027880128, 75.65208020250937 1.8724490051997846 C75.6073476911953 2.2193855295181457, 75.56261517988125 2.5663220538365072, 75.49223227658177 3.1121979531508885 C75.44186764648418 3.3708096841337087, 75.39150301638658 3.629421415116529, 75.25328178754556 4.339158212148129 C75.1488034127396 4.737579536497329, 75.04432503793365 5.13600086084653, 74.93621063421489 5.548287939305125 C74.78853890627161 5.993051655575604, 74.64086717832835 6.4378153718460815, 74.54232172997033 6.734618561215495 C74.44061979404783 6.985824309217217, 74.33891785812534 7.237030057218939, 74.07323364880834 7.893275190886679 C73.91071271753727 8.230753382061922, 73.7481917862662 8.568231573237165, 73.5308739742735 9.019496659696284 C73.33244840513407 9.371821350470993, 73.13402283599466 9.724146041245703, 72.91747137860425 10.108655082055236 C72.7725125269003 10.331350805174468, 72.62755367519635 10.5540465282937, 72.23554646464065 11.156274872382301 C72.00145044352537 11.469942214090512, 71.76735442241011 11.783609555798725, 71.48790140812659 12.158051136245302 C71.19842450966493 12.498087172880513, 70.90894761120326 12.838123209515725, 70.67760844296866 13.10986736009567 C70.46048896859367 13.33406104322821, 70.24336949421868 13.558254726360753, 69.80799723676799 14.007812326905684 C69.48072243236417 14.305034645048417, 69.15344762796036 14.602256963191149, 68.8826412085019 14.848196188198111 C68.64214644657193 15.039984361002869, 68.40165168464196 15.231772533807625, 67.90534284457871 15.627565626425152 C67.6111619945325 15.832773452533646, 67.31698114448628 16.03798127864214, 66.8801180736057 16.34271804539089 C66.5917013247609 16.517557973465554, 66.30328457591612 16.692397901540215, 65.81117976407678 16.990714730406093 C65.49469021973245 17.155827122969306, 65.1782006753881 17.320939515532523, 64.70292041279238 17.56889292409717 C64.39102269146349 17.706960793212296, 64.0791249701346 17.845028662327422, 63.559894095147804 18.07487676824742 C63.227647150732416 18.19714671504937, 62.89540020631703 18.31941666185132, 62.38679775146062 18.506587066708033 C61.95839666802086 18.63373425954978, 61.5299955845811 18.760881452391526, 61.18845188623541 18.86224982926107 C60.70609487427375 18.97234466956765, 60.22373786231209 19.08243950987423, 59.969780759676766 19.140403561325773 C59.51772215470472 19.21348889081081, 59.065663549732676 19.286574220295854, 58.73579215284788 19.3399052695533 C58.391918786535385 19.373078319633237, 58.048045420222884 19.40625136971317, 57.4915567896239 19.45993515863156 C57.05795743887375 19.47383984586018, 56.6243580881236 19.4877445330888, 56.24218750000001 19.5 C56.24218750000001 19.5, 56.2421875 19.5, 56.2421875 19.5 C17.548797155328025 19.5, -21.14459318934395 19.5, -56.24218749999999 19.5 C-56.54092395563571 19.490420103323, -56.83966041127144 19.480840206645997, -57.49155678962389 19.45993515863156 C-57.796495090193325 19.430518127517587, -58.10143339076276 19.401101096403618, -58.73579215284787 19.3399052695533 C-59.18192968403179 19.26777721335971, -59.62806721521571 19.19564915716612, -59.96978075967676 19.140403561325773 C-60.36242111571697 19.05078596227737, -60.75506147175718 18.961168363228968, -61.188451886235384 18.862249829261074 C-61.54140305665453 18.757495774559175, -61.89435422707367 18.65274171985727, -62.38679775146059 18.506587066708043 C-62.64896671050599 18.410106466316044, -62.91113566955139 18.31362586592405, -63.5598940951478 18.074876768247425 C-63.85122053656615 17.945915194523355, -64.14254697798451 17.81695362079929, -64.70292041279238 17.568892924097174 C-65.1094411267605 17.356811328008952, -65.51596184072862 17.14472973192073, -65.81117976407678 16.990714730406097 C-66.16323566728052 16.777296372973858, -66.51529157048425 16.563878015541622, -66.88011807360569 16.3427180453909 C-67.11571504989507 16.17837579356015, -67.35131202618446 16.014033541729404, -67.90534284457871 15.627565626425156 C-68.26849554059277 15.337961015253049, -68.63164823660681 15.048356404080943, -68.88264120850187 14.848196188198125 C-69.07485110738631 14.673636243626515, -69.26706100627077 14.499076299054902, -69.80799723676797 14.007812326905697 C-69.98323692723109 13.826862959056378, -70.15847661769419 13.645913591207059, -70.67760844296865 13.109867360095677 C-70.98227361685883 12.75199031090477, -71.28693879074902 12.394113261713862, -71.48790140812658 12.158051136245307 C-71.68118580776641 11.899067649298987, -71.87447020740623 11.640084162352666, -72.23554646464063 11.156274872382316 C-72.42096492996207 10.871422317819137, -72.60638339528352 10.586569763255957, -72.91747137860425 10.108655082055249 C-73.12090152329134 9.747444260627445, -73.32433166797841 9.386233439199643, -73.5308739742735 9.019496659696289 C-73.72222632624161 8.622149406550072, -73.91357867820972 8.224802153403857, -74.07323364880834 7.893275190886686 C-74.20973435544143 7.556115806441322, -74.34623506207453 7.2189564219959586, -74.54232172997033 6.73461856121551 C-74.67798850893716 6.326011838533199, -74.81365528790398 5.917405115850888, -74.93621063421489 5.5482879393051325 C-75.02726353531926 5.201063764817178, -75.11831643642364 4.853839590329223, -75.25328178754556 4.339158212148136 C-75.30312720030633 4.08321255245327, -75.35297261306711 3.827266892758405, -75.49223227658177 3.112197953150904 C-75.53574013277543 2.7747596121108558, -75.5792479889691 2.4373212710708074, -75.65208020250937 1.872449005199809 C-75.67470384024818 1.5200675859459998, -75.697327477987 1.1676861666921905, -75.73216871591342 0.6250057626472781 C-75.73216871591342 0.24256942502898599, -75.73216871591342 -0.13986691258930617, -75.73216871591342 -0.6250057626472687 C-75.71460031459138 -0.8986477941963242, -75.69703191326934 -1.1722898257453798, -75.65208020250937 -1.8724490051997822 C-75.60216658717866 -2.259569149146548, -75.55225297184795 -2.646689293093314, -75.49223227658177 -3.112197953150895 C-75.4074820397102 -3.5473725075175206, -75.32273180283863 -3.9825470618841456, -75.25328178754556 -4.339158212148126 C-75.14967192627864 -4.734267517956791, -75.04606206501174 -5.129376823765457, -74.93621063421489 -5.548287939305123 C-74.80351328603157 -5.94795120958203, -74.67081593784826 -6.347614479858938, -74.54232172997033 -6.734618561215485 C-74.3660075332865 -7.170118035827624, -74.18969333660269 -7.605617510439764, -74.07323364880834 -7.893275190886676 C-73.95228952000359 -8.144418262139535, -73.83134539119885 -8.395561333392395, -73.5308739742735 -9.019496659696282 C-73.37628712785346 -9.29398125913069, -73.22170028143341 -9.5684658585651, -72.91747137860425 -10.108655082055243 C-72.75780970750276 -10.353938284028908, -72.59814803640127 -10.599221486002573, -72.23554646464063 -11.156274872382308 C-71.94901616506013 -11.540199370372898, -71.66248586547962 -11.924123868363488, -71.48790140812659 -12.158051136245302 C-71.2723482749457 -12.411252111800312, -71.05679514176481 -12.664453087355325, -70.67760844296866 -13.10986736009567 C-70.36562671962581 -13.432014103623004, -70.05364499628297 -13.754160847150336, -69.80799723676799 -14.007812326905677 C-69.5983233953874 -14.198232561981694, -69.3886495540068 -14.388652797057713, -68.8826412085019 -14.848196188198107 C-68.52724567737535 -15.131614666799255, -68.1718501462488 -15.415033145400404, -67.90534284457871 -15.627565626425149 C-67.50153281764796 -15.90924602055772, -67.0977227907172 -16.190926414690296, -66.88011807360571 -16.342718045390885 C-66.60886418722998 -16.507153745376623, -66.33761030085427 -16.67158944536236, -65.81117976407678 -16.99071473040609 C-65.40251937270261 -17.203912594826527, -64.99385898132843 -17.417110459246967, -64.7029204127924 -17.56889292409717 C-64.42320349137901 -17.69271530769921, -64.14348656996563 -17.81653769130125, -63.559894095147804 -18.07487676824742 C-63.21039295800001 -18.203496417470905, -62.86089182085221 -18.33211606669439, -62.38679775146062 -18.506587066708033 C-62.07788264226955 -18.598271449587447, -61.768967533078474 -18.689955832466858, -61.18845188623541 -18.862249829261067 C-60.85842359607933 -18.937576632853332, -60.52839530592324 -19.012903436445598, -59.969780759676766 -19.140403561325773 C-59.62515039129386 -19.1961207266375, -59.280520022910956 -19.251837891949222, -58.73579215284788 -19.3399052695533 C-58.43255652277446 -19.36915804609228, -58.12932089270105 -19.39841082263126, -57.4915567896239 -19.45993515863156 C-57.09600272329073 -19.472619807639582, -56.700448656957555 -19.4853044566476, -56.24218750000001 -19.5 C-56.24218750000001 -19.5, -56.2421875 -19.5, -56.2421875 -19.5" stroke="none" stroke-width="0" fill="#ECECFF" style=""/><path d="M-56.2421875 -19.5 C-17.918067766833623 -19.5, 20.406051966332754 -19.5, 56.2421875 -19.5 M-56.2421875 -19.5 C-33.66847875970059 -19.5, -11.094770019401182 -19.5, 56.2421875 -19.5 M56.2421875 -19.5 C56.2421875 -19.5, 56.2421875 -19.5, 56.2421875 -19.5 M56.2421875 -19.5 C56.2421875 -19.5, 56.2421875 -19.5, 56.2421875 -19.5 M56.2421875 -19.5 C56.49584428871455 -19.49186572049891, 56.7495010774291 -19.483731440997826, 57.4915567896239 -19.45993515863156 M56.2421875 -19.5 C56.63814680727207 -19.48730235570382, 57.03410611454414 -19.474604711407643, 57.4915567896239 -19.45993515863156 M57.4915567896239 -19.45993515863156 C57.94208599161605 -19.416473148356015, 58.392615193608194 -19.37301113808047, 58.735792152847864 -19.3399052695533 M57.4915567896239 -19.45993515863156 C57.94478759792271 -19.41621252764477, 58.398018406221524 -19.372489896657978, 58.735792152847864 -19.3399052695533 M58.735792152847864 -19.3399052695533 C59.10572955121403 -19.28009665989283, 59.475666949580194 -19.22028805023236, 59.96978075967676 -19.140403561325776 M58.735792152847864 -19.3399052695533 C59.0414811714512 -19.290483839679258, 59.34717019005454 -19.241062409805217, 59.96978075967676 -19.140403561325776 M59.96978075967676 -19.140403561325776 C60.250781696467506 -19.07626693120577, 60.53178263325825 -19.01213030108576, 61.18845188623539 -18.862249829261074 M59.96978075967676 -19.140403561325776 C60.27357294637818 -19.071064977140463, 60.5773651330796 -19.00172639295515, 61.18845188623539 -18.862249829261074 M61.18845188623539 -18.862249829261074 C61.50398864200744 -18.76860017643416, 61.81952539777949 -18.674950523607244, 62.386797751460605 -18.50658706670804 M61.18845188623539 -18.862249829261074 C61.491481249060456 -18.772312305008178, 61.79451061188553 -18.682374780755286, 62.386797751460605 -18.50658706670804 M62.386797751460605 -18.50658706670804 C62.65484978895212 -18.40794143906529, 62.92290182644364 -18.309295811422537, 63.5598940951478 -18.074876768247425 M62.386797751460605 -18.50658706670804 C62.83806512164018 -18.340516503012115, 63.28933249181975 -18.174445939316193, 63.5598940951478 -18.074876768247425 M63.5598940951478 -18.074876768247425 C63.98371218470378 -17.88726507211793, 64.40753027425977 -17.699653375988433, 64.70292041279238 -17.568892924097174 M63.5598940951478 -18.074876768247425 C64.00076092796564 -17.8797180992089, 64.44162776078349 -17.684559430170378, 64.70292041279238 -17.568892924097174 M64.70292041279238 -17.568892924097174 C65.02297713183754 -17.401919538777427, 65.3430338508827 -17.23494615345768, 65.81117976407678 -16.990714730406097 M64.70292041279238 -17.568892924097174 C65.07239777431292 -17.376136821253457, 65.44187513583346 -17.18338071840974, 65.81117976407678 -16.990714730406097 M65.81117976407678 -16.990714730406097 C66.13004103752377 -16.797419152605702, 66.44890231097074 -16.604123574805307, 66.8801180736057 -16.342718045390892 M65.81117976407678 -16.990714730406097 C66.04680467750742 -16.847877523198758, 66.28242959093805 -16.70504031599142, 66.8801180736057 -16.342718045390892 M66.8801180736057 -16.342718045390892 C67.25667453556011 -16.080048558398012, 67.63323099751452 -15.817379071405135, 67.90534284457871 -15.627565626425154 M66.8801180736057 -16.342718045390892 C67.231132598591 -16.097865507935026, 67.5821471235763 -15.853012970479162, 67.90534284457871 -15.627565626425154 M67.90534284457871 -15.627565626425154 C68.24947450849363 -15.353129782181183, 68.59360617240854 -15.078693937937212, 68.88264120850187 -14.848196188198123 M67.90534284457871 -15.627565626425154 C68.13226810489274 -15.446598770059499, 68.35919336520678 -15.265631913693841, 68.88264120850187 -14.848196188198123 M68.88264120850187 -14.848196188198123 C69.18665126166957 -14.572102301576448, 69.49066131483727 -14.296008414954775, 69.80799723676799 -14.007812326905688 M68.88264120850187 -14.848196188198123 C69.22908196614856 -14.53356785842355, 69.57552272379525 -14.218939528648978, 69.80799723676799 -14.007812326905688 M69.80799723676799 -14.007812326905688 C70.11216538321924 -13.693733743025527, 70.41633352967047 -13.379655159145367, 70.67760844296865 -13.10986736009568 M69.80799723676799 -14.007812326905688 C70.07973224469704 -13.727223621359883, 70.3514672526261 -13.446634915814078, 70.67760844296865 -13.10986736009568 M70.67760844296865 -13.10986736009568 C70.9093021721768 -12.837706722021116, 71.14099590138494 -12.56554608394655, 71.48790140812658 -12.158051136245305 M70.67760844296865 -13.10986736009568 C70.88891524951383 -12.861654361429807, 71.100222056059 -12.61344136276393, 71.48790140812658 -12.158051136245305 M71.48790140812658 -12.158051136245305 C71.66332087652042 -11.923005029639901, 71.83874034491424 -11.687958923034495, 72.23554646464063 -11.156274872382312 M71.48790140812658 -12.158051136245305 C71.7041015044087 -11.868362703461225, 71.92030160069082 -11.578674270677144, 72.23554646464063 -11.156274872382312 M72.23554646464063 -11.156274872382312 C72.47054604636546 -10.795252408629596, 72.70554562809026 -10.43422994487688, 72.91747137860425 -10.108655082055241 M72.23554646464063 -11.156274872382312 C72.44668634227946 -10.83190732133331, 72.6578262199183 -10.507539770284307, 72.91747137860425 -10.108655082055241 M72.91747137860425 -10.108655082055241 C73.14586466174715 -9.70311968050726, 73.37425794489005 -9.29758427895928, 73.5308739742735 -9.019496659696287 M72.91747137860425 -10.108655082055241 C73.11368081587071 -9.760265357828672, 73.30989025313717 -9.411875633602103, 73.5308739742735 -9.019496659696287 M73.5308739742735 -9.019496659696287 C73.66931260332888 -8.732025884350673, 73.80775123238423 -8.444555109005059, 74.07323364880834 -7.893275190886684 M73.5308739742735 -9.019496659696287 C73.6651619096878 -8.740644888506976, 73.79944984510209 -8.461793117317665, 74.07323364880834 -7.893275190886684 M74.07323364880834 -7.893275190886684 C74.19454393852442 -7.593636429913075, 74.3158542282405 -7.2939976689394665, 74.54232172997033 -6.734618561215508 M74.07323364880834 -7.893275190886684 C74.21988843277272 -7.531035039117316, 74.3665432167371 -7.168794887347946, 74.54232172997033 -6.734618561215508 M74.54232172997033 -6.734618561215508 C74.62220498582148 -6.494022922260202, 74.70208824167264 -6.253427283304895, 74.93621063421489 -5.548287939305138 M74.54232172997033 -6.734618561215508 C74.6919985248498 -6.283815902797221, 74.84167531972928 -5.833013244378932, 74.93621063421489 -5.548287939305138 M74.93621063421489 -5.548287939305138 C75.03719168871396 -5.163203413034325, 75.13817274321302 -4.778118886763512, 75.25328178754556 -4.339158212148133 M74.93621063421489 -5.548287939305138 C75.05299401048195 -5.1029423113633445, 75.16977738674903 -4.65759668342155, 75.25328178754556 -4.339158212148133 M75.25328178754556 -4.339158212148133 C75.31663977285193 -4.013828348314898, 75.37999775815828 -3.688498484481663, 75.49223227658177 -3.1121979531509023 M75.25328178754556 -4.339158212148133 C75.3056787651852 -4.070110806073707, 75.35807574282485 -3.8010633999992804, 75.49223227658177 -3.1121979531509023 M75.49223227658177 -3.1121979531509023 C75.5509134146077 -2.6570786345232205, 75.60959455263362 -2.2019593158955386, 75.65208020250937 -1.872449005199798 M75.49223227658177 -3.1121979531509023 C75.53533754235823 -2.7778820238862107, 75.5784428081347 -2.4435660946215196, 75.65208020250937 -1.872449005199798 M75.65208020250937 -1.872449005199798 C75.66994455318185 -1.5941973236315827, 75.68780890385433 -1.3159456420633675, 75.73216871591342 -0.6250057626472757 M75.65208020250937 -1.872449005199798 C75.67342528536432 -1.539982110293257, 75.69477036821925 -1.207515215386716, 75.73216871591342 -0.6250057626472757 M75.73216871591342 -0.6250057626472757 C75.73216871591342 -0.232959712902719, 75.73216871591342 0.1590863368418377, 75.73216871591342 0.625005762647271 M75.73216871591342 -0.6250057626472757 C75.73216871591342 -0.24917610550177943, 75.73216871591342 0.12665355164371683, 75.73216871591342 0.625005762647271 M75.73216871591342 0.625005762647271 C75.71426358076047 0.9038926954192306, 75.69635844560754 1.1827796281911902, 75.65208020250937 1.8724490051997846 M75.73216871591342 0.625005762647271 C75.71004158707824 0.969653654952072, 75.68791445824306 1.314301547256873, 75.65208020250937 1.8724490051997846 M75.65208020250937 1.8724490051997846 C75.60301694558567 2.2529739372640845, 75.55395368866196 2.6334988693283847, 75.49223227658177 3.1121979531508885 M75.65208020250937 1.8724490051997846 C75.61806966248378 2.13622803749748, 75.58405912245819 2.400007069795175, 75.49223227658177 3.1121979531508885 M75.49223227658177 3.1121979531508885 C75.40536620754398 3.558236858509819, 75.31850013850617 4.004275763868749, 75.25328178754556 4.339158212148129 M75.49223227658177 3.1121979531508885 C75.40605786918482 3.5546853221668107, 75.31988346178787 3.9971726911827328, 75.25328178754556 4.339158212148129 M75.25328178754556 4.339158212148129 C75.18755137043289 4.5898167803417635, 75.1218209533202 4.840475348535398, 74.93621063421489 5.548287939305125 M75.25328178754556 4.339158212148129 C75.15635796262532 4.708770763620463, 75.05943413770507 5.078383315092797, 74.93621063421489 5.548287939305125 M74.93621063421489 5.548287939305125 C74.83532885660038 5.852127780151524, 74.7344470789859 6.155967620997924, 74.54232172997033 6.734618561215495 M74.93621063421489 5.548287939305125 C74.80636137670844 5.939373214244955, 74.67651211920197 6.330458489184784, 74.54232172997033 6.734618561215495 M74.54232172997033 6.734618561215495 C74.37676818724967 7.143539012495525, 74.21121464452901 7.552459463775556, 74.07323364880834 7.893275190886679 M74.54232172997033 6.734618561215495 C74.35666204736408 7.193201566738689, 74.17100236475784 7.651784572261883, 74.07323364880834 7.893275190886679 M74.07323364880834 7.893275190886679 C73.95970914186518 8.12901125858949, 73.84618463492201 8.364747326292301, 73.5308739742735 9.019496659696284 M74.07323364880834 7.893275190886679 C73.93893364411001 8.172152024202536, 73.80463363941168 8.451028857518391, 73.5308739742735 9.019496659696284 M73.5308739742735 9.019496659696284 C73.3062733027484 9.418297895273296, 73.08167263122328 9.817099130850309, 72.91747137860425 10.108655082055236 M73.5308739742735 9.019496659696284 C73.33402850361719 9.369015725611893, 73.13718303296089 9.718534791527505, 72.91747137860425 10.108655082055236 M72.91747137860425 10.108655082055236 C72.67360520785213 10.48329900756642, 72.4297390371 10.857942933077602, 72.23554646464065 11.156274872382301 M72.91747137860425 10.108655082055236 C72.70525053558404 10.434683286209877, 72.49302969256384 10.760711490364516, 72.23554646464065 11.156274872382301 M72.23554646464065 11.156274872382301 C71.94203598313756 11.549552178241498, 71.64852550163447 11.942829484100693, 71.48790140812659 12.158051136245302 M72.23554646464065 11.156274872382301 C71.94226081621153 11.549250922405097, 71.6489751677824 11.942226972427893, 71.48790140812659 12.158051136245302 M71.48790140812659 12.158051136245302 C71.30135079238802 12.377184104522566, 71.11480017664945 12.596317072799831, 70.67760844296866 13.10986736009567 M71.48790140812659 12.158051136245302 C71.21581075823829 12.477664296000667, 70.94372010835 12.79727745575603, 70.67760844296866 13.10986736009567 M70.67760844296866 13.10986736009567 C70.4976675775031 13.295671077108677, 70.31772671203751 13.481474794121683, 69.80799723676799 14.007812326905684 M70.67760844296866 13.10986736009567 C70.42316017206835 13.372606090391798, 70.16871190116802 13.635344820687926, 69.80799723676799 14.007812326905684 M69.80799723676799 14.007812326905684 C69.59720508338579 14.199248183352648, 69.38641293000359 14.390684039799611, 68.8826412085019 14.848196188198111 M69.80799723676799 14.007812326905684 C69.44462685832474 14.337815690354482, 69.08125647988147 14.66781905380328, 68.8826412085019 14.848196188198111 M68.8826412085019 14.848196188198111 C68.50882662027661 15.146303374683807, 68.13501203205132 15.444410561169502, 67.90534284457871 15.627565626425152 M68.8826412085019 14.848196188198111 C68.55159187663456 15.112199220769606, 68.22054254476723 15.376202253341102, 67.90534284457871 15.627565626425152 M67.90534284457871 15.627565626425152 C67.60096031575677 15.839889702024038, 67.29657778693482 16.052213777622924, 66.8801180736057 16.34271804539089 M67.90534284457871 15.627565626425152 C67.54678204865547 15.877682115814515, 67.18822125273223 16.12779860520388, 66.8801180736057 16.34271804539089 M66.8801180736057 16.34271804539089 C66.47808588871683 16.586432318473882, 66.07605370382797 16.830146591556876, 65.81117976407678 16.990714730406093 M66.8801180736057 16.34271804539089 C66.66524603381949 16.47297473863756, 66.45037399403326 16.603231431884236, 65.81117976407678 16.990714730406093 M65.81117976407678 16.990714730406093 C65.52024570431819 17.142494843029993, 65.22931164455959 17.294274955653897, 64.70292041279238 17.56889292409717 M65.81117976407678 16.990714730406093 C65.55134614192686 17.126269764650328, 65.29151251977694 17.261824798894565, 64.70292041279238 17.56889292409717 M64.70292041279238 17.56889292409717 C64.42419911653194 17.692274573978178, 64.14547782027148 17.81565622385919, 63.559894095147804 18.07487676824742 M64.70292041279238 17.56889292409717 C64.32199600360823 17.737516860321875, 63.94107159442408 17.906140796546584, 63.559894095147804 18.07487676824742 M63.559894095147804 18.07487676824742 C63.239300550811485 18.192858156097422, 62.91870700647517 18.310839543947427, 62.38679775146062 18.506587066708033 M63.559894095147804 18.07487676824742 C63.16091966781658 18.221703045584487, 62.76194524048535 18.368529322921557, 62.38679775146062 18.506587066708033 M62.38679775146062 18.506587066708033 C62.124274502355306 18.584502589029835, 61.861751253249984 18.66241811135164, 61.18845188623541 18.86224982926107 M62.38679775146062 18.506587066708033 C62.05134386813915 18.60614801844448, 61.71588998481768 18.70570897018093, 61.18845188623541 18.86224982926107 M61.18845188623541 18.86224982926107 C60.76682613949409 18.95848315458965, 60.34520039275277 19.05471647991823, 59.969780759676766 19.140403561325773 M61.18845188623541 18.86224982926107 C60.917672228471226 18.924053519143342, 60.646892570707045 18.985857209025617, 59.969780759676766 19.140403561325773 M59.969780759676766 19.140403561325773 C59.649675954742506 19.192155623737705, 59.329571149808245 19.24390768614964, 58.73579215284788 19.3399052695533 M59.969780759676766 19.140403561325773 C59.58471692970019 19.202657695141784, 59.19965309972361 19.264911828957796, 58.73579215284788 19.3399052695533 M58.73579215284788 19.3399052695533 C58.376001773613936 19.374613814726757, 58.01621139437999 19.40932235990022, 57.4915567896239 19.45993515863156 M58.73579215284788 19.3399052695533 C58.306975759022286 19.381272671338486, 57.878159365196694 19.422640073123674, 57.4915567896239 19.45993515863156 M57.4915567896239 19.45993515863156 C57.01312828960064 19.47527742942272, 56.53469978957738 19.490619700213884, 56.24218750000001 19.5 M57.4915567896239 19.45993515863156 C57.12657093265075 19.471639544662814, 56.7615850756776 19.48334393069407, 56.24218750000001 19.5 M56.24218750000001 19.5 C56.24218750000001 19.5, 56.2421875 19.5, 56.2421875 19.5 M56.24218750000001 19.5 C56.24218750000001 19.5, 56.2421875 19.5, 56.2421875 19.5 M56.2421875 19.5 C19.2391327740048 19.5, -17.763921951990397 19.5, -56.24218749999999 19.5 M56.2421875 19.5 C16.57247998575665 19.5, -23.097227528486698 19.5, -56.24218749999999 19.5 M-56.24218749999999 19.5 C-56.62619267799237 19.48768570136252, -57.01019785598474 19.47537140272504, -57.49155678962389 19.45993515863156 M-56.24218749999999 19.5 C-56.6284605376639 19.487612975516974, -57.014733575327796 19.475225951033952, -57.49155678962389 19.45993515863156 M-57.49155678962389 19.45993515863156 C-57.7416063621741 19.43581317709625, -57.99165593472432 19.411691195560937, -58.73579215284787 19.3399052695533 M-57.49155678962389 19.45993515863156 C-57.78836440318291 19.4313024851149, -58.08517201674193 19.402669811598244, -58.73579215284787 19.3399052695533 M-58.73579215284787 19.3399052695533 C-58.99967633055735 19.297242522153592, -59.26356050826683 19.254579774753886, -59.96978075967676 19.140403561325773 M-58.73579215284787 19.3399052695533 C-59.1987827695392 19.265052537192503, -59.66177338623053 19.190199804831703, -59.96978075967676 19.140403561325773 M-59.96978075967676 19.140403561325773 C-60.39331584790821 19.043734441261687, -60.816850936139666 18.947065321197602, -61.188451886235384 18.862249829261074 M-59.96978075967676 19.140403561325773 C-60.41263616639326 19.039324704644336, -60.85549157310977 18.938245847962897, -61.188451886235384 18.862249829261074 M-61.188451886235384 18.862249829261074 C-61.441538262843366 18.787135121161327, -61.69462463945134 18.71202041306158, -62.38679775146059 18.506587066708043 M-61.188451886235384 18.862249829261074 C-61.44982664791351 18.784675171979128, -61.71120140959164 18.70710051469718, -62.38679775146059 18.506587066708043 M-62.38679775146059 18.506587066708043 C-62.65434844681504 18.408125937606087, -62.9218991421695 18.309664808504134, -63.5598940951478 18.074876768247425 M-62.38679775146059 18.506587066708043 C-62.730740126871304 18.380013093188435, -63.074682502282016 18.253439119668826, -63.5598940951478 18.074876768247425 M-63.5598940951478 18.074876768247425 C-63.87452177216353 17.935600428730993, -64.18914944917927 17.796324089214558, -64.70292041279238 17.568892924097174 M-63.5598940951478 18.074876768247425 C-63.88646438122992 17.930313789962213, -64.21303466731204 17.785750811677, -64.70292041279238 17.568892924097174 M-64.70292041279238 17.568892924097174 C-64.94792200818758 17.44107574871051, -65.19292360358278 17.313258573323846, -65.81117976407678 16.990714730406097 M-64.70292041279238 17.568892924097174 C-65.06377069865495 17.38063756109831, -65.42462098451752 17.19238219809945, -65.81117976407678 16.990714730406097 M-65.81117976407678 16.990714730406097 C-66.13271182953713 16.79580010279188, -66.45424389499749 16.600885475177662, -66.88011807360569 16.3427180453909 M-65.81117976407678 16.990714730406097 C-66.2001876317713 16.754895874945703, -66.58919549946582 16.51907701948531, -66.88011807360569 16.3427180453909 M-66.88011807360569 16.3427180453909 C-67.09389610456752 16.19359574529373, -67.30767413552937 16.04447344519656, -67.90534284457871 15.627565626425156 M-66.88011807360569 16.3427180453909 C-67.17100816120033 16.13980571271381, -67.461898248795 15.936893380036716, -67.90534284457871 15.627565626425156 M-67.90534284457871 15.627565626425156 C-68.13086646484791 15.447716540696053, -68.3563900851171 15.267867454966948, -68.88264120850187 14.848196188198125 M-67.90534284457871 15.627565626425156 C-68.15214567645783 15.430746935700737, -68.39894850833696 15.23392824497632, -68.88264120850187 14.848196188198125 M-68.88264120850187 14.848196188198125 C-69.11809724866268 14.634361242349517, -69.35355328882349 14.42052629650091, -69.80799723676797 14.007812326905697 M-68.88264120850187 14.848196188198125 C-69.06885608512587 14.679080764223853, -69.25507096174987 14.509965340249583, -69.80799723676797 14.007812326905697 M-69.80799723676797 14.007812326905697 C-70.14418548311806 13.66067036098089, -70.48037372946814 13.313528395056082, -70.67760844296865 13.109867360095677 M-69.80799723676797 14.007812326905697 C-70.09867454127537 13.707664144951275, -70.38935184578277 13.407515962996856, -70.67760844296865 13.109867360095677 M-70.67760844296865 13.109867360095677 C-70.84842708924899 12.909214058318465, -71.01924573552932 12.708560756541253, -71.48790140812658 12.158051136245307 M-70.67760844296865 13.109867360095677 C-70.98501713488143 12.74876761852483, -71.2924258267942 12.387667876953982, -71.48790140812658 12.158051136245307 M-71.48790140812658 12.158051136245307 C-71.74795396758486 11.809604397846739, -72.00800652704316 11.461157659448173, -72.23554646464063 11.156274872382316 M-71.48790140812658 12.158051136245307 C-71.69822775125688 11.876232997574748, -71.90855409438717 11.594414858904187, -72.23554646464063 11.156274872382316 M-72.23554646464063 11.156274872382316 C-72.39866908818313 10.905674718063413, -72.56179171172562 10.65507456374451, -72.91747137860425 10.108655082055249 M-72.23554646464063 11.156274872382316 C-72.47348298591542 10.790740480802159, -72.7114195071902 10.425206089222002, -72.91747137860425 10.108655082055249 M-72.91747137860425 10.108655082055249 C-73.15695093381365 9.683434881846418, -73.39643048902305 9.25821468163759, -73.5308739742735 9.019496659696289 M-72.91747137860425 10.108655082055249 C-73.04148513160116 9.888456105855015, -73.16549888459808 9.66825712965478, -73.5308739742735 9.019496659696289 M-73.5308739742735 9.019496659696289 C-73.70404282803008 8.659907829650841, -73.87721168178666 8.300318999605393, -74.07323364880834 7.893275190886686 M-73.5308739742735 9.019496659696289 C-73.72581640170829 8.614694538028207, -73.92075882914307 8.209892416360125, -74.07323364880834 7.893275190886686 M-74.07323364880834 7.893275190886686 C-74.22156410647308 7.526896092680487, -74.36989456413781 7.160516994474289, -74.54232172997033 6.73461856121551 M-74.07323364880834 7.893275190886686 C-74.25884585869612 7.434809443895915, -74.4444580685839 6.976343696905143, -74.54232172997033 6.73461856121551 M-74.54232172997033 6.73461856121551 C-74.64484633404588 6.425830788817233, -74.74737093812145 6.1170430164189575, -74.93621063421489 5.5482879393051325 M-74.54232172997033 6.73461856121551 C-74.64330867745221 6.430461965485079, -74.7442956249341 6.126305369754648, -74.93621063421489 5.5482879393051325 M-74.93621063421489 5.5482879393051325 C-75.00079809177488 5.301987971247676, -75.06538554933489 5.05568800319022, -75.25328178754556 4.339158212148136 M-74.93621063421489 5.5482879393051325 C-75.03442347232534 5.173759821876671, -75.1326363104358 4.79923170444821, -75.25328178754556 4.339158212148136 M-75.25328178754556 4.339158212148136 C-75.34223506447043 3.8824019354206927, -75.43118834139528 3.4256456586932496, -75.49223227658177 3.112197953150904 M-75.25328178754556 4.339158212148136 C-75.34409703228735 3.8728411242078096, -75.43491227702914 3.4065240362674833, -75.49223227658177 3.112197953150904 M-75.49223227658177 3.112197953150904 C-75.53116444170173 2.8102477685061102, -75.57009660682169 2.508297583861317, -75.65208020250937 1.872449005199809 M-75.49223227658177 3.112197953150904 C-75.52753864340515 2.8383687440995335, -75.56284501022853 2.564539535048163, -75.65208020250937 1.872449005199809 M-75.65208020250937 1.872449005199809 C-75.66993306442366 1.5943762703140172, -75.68778592633794 1.3163035354282253, -75.73216871591342 0.6250057626472781 M-75.65208020250937 1.872449005199809 C-75.672182099709 1.559345730355997, -75.69228399690866 1.2462424555121852, -75.73216871591342 0.6250057626472781 M-75.73216871591342 0.6250057626472781 C-75.73216871591342 0.2780108281014346, -75.73216871591342 -0.06898410644440889, -75.73216871591342 -0.6250057626472687 M-75.73216871591342 0.6250057626472781 C-75.73216871591342 0.23727980769916018, -75.73216871591342 -0.15044614724895777, -75.73216871591342 -0.6250057626472687 M-75.73216871591342 -0.6250057626472687 C-75.70058558612185 -1.1169385025944565, -75.66900245633028 -1.6088712425416443, -75.65208020250937 -1.8724490051997822 M-75.73216871591342 -0.6250057626472687 C-75.7018880647693 -1.096651346318412, -75.6716074136252 -1.5682969299895553, -75.65208020250937 -1.8724490051997822 M-75.65208020250937 -1.8724490051997822 C-75.61768171624304 -2.139236871931935, -75.58328322997673 -2.406024738664088, -75.49223227658177 -3.112197953150895 M-75.65208020250937 -1.8724490051997822 C-75.59106900136311 -2.3456398332657753, -75.53005780021685 -2.8188306613317686, -75.49223227658177 -3.112197953150895 M-75.49223227658177 -3.112197953150895 C-75.39898356739474 -3.5910103667046496, -75.30573485820771 -4.069822780258404, -75.25328178754556 -4.339158212148126 M-75.49223227658177 -3.112197953150895 C-75.40310442528116 -3.5698506324014936, -75.31397657398055 -4.027503311652092, -75.25328178754556 -4.339158212148126 M-75.25328178754556 -4.339158212148126 C-75.15157589752354 -4.7270068504136304, -75.04987000750154 -5.114855488679136, -74.93621063421489 -5.548287939305123 M-75.25328178754556 -4.339158212148126 C-75.15725436677009 -4.705352386112438, -75.06122694599462 -5.071546560076749, -74.93621063421489 -5.548287939305123 M-74.93621063421489 -5.548287939305123 C-74.84256895829922 -5.830321747388174, -74.74892728238356 -6.112355555471226, -74.54232172997033 -6.734618561215485 M-74.93621063421489 -5.548287939305123 C-74.85594212105434 -5.790043911893918, -74.77567360789378 -6.031799884482714, -74.54232172997033 -6.734618561215485 M-74.54232172997033 -6.734618561215485 C-74.42113582001188 -7.0339501017830175, -74.29994991005344 -7.333281642350551, -74.07323364880834 -7.893275190886676 M-74.54232172997033 -6.734618561215485 C-74.39897321166052 -7.0886921728957715, -74.25562469335071 -7.442765784576057, -74.07323364880834 -7.893275190886676 M-74.07323364880834 -7.893275190886676 C-73.89941222235609 -8.25421910209751, -73.72559079590383 -8.615163013308345, -73.5308739742735 -9.019496659696282 M-74.07323364880834 -7.893275190886676 C-73.94823852346993 -8.152830243119146, -73.82324339813151 -8.412385295351614, -73.5308739742735 -9.019496659696282 M-73.5308739742735 -9.019496659696282 C-73.31721860868838 -9.398863396244442, -73.10356324310327 -9.778230132792602, -72.91747137860425 -10.108655082055243 M-73.5308739742735 -9.019496659696282 C-73.3069274641939 -9.417136365385764, -73.08298095411432 -9.814776071075247, -72.91747137860425 -10.108655082055243 M-72.91747137860425 -10.108655082055243 C-72.7395899643758 -10.381928702157985, -72.56170855014736 -10.655202322260726, -72.23554646464063 -11.156274872382308 M-72.91747137860425 -10.108655082055243 C-72.6739121804555 -10.482827415213956, -72.43035298230676 -10.85699974837267, -72.23554646464063 -11.156274872382308 M-72.23554646464063 -11.156274872382308 C-72.01374675361755 -11.453466278783885, -71.79194704259447 -11.750657685185462, -71.48790140812659 -12.158051136245302 M-72.23554646464063 -11.156274872382308 C-72.01030510518352 -11.458077774144868, -71.7850637457264 -11.759880675907429, -71.48790140812659 -12.158051136245302 M-71.48790140812659 -12.158051136245302 C-71.32332816470162 -12.351368232455101, -71.15875492127665 -12.544685328664901, -70.67760844296866 -13.10986736009567 M-71.48790140812659 -12.158051136245302 C-71.31576021136998 -12.36025798106719, -71.14361901461338 -12.56246482588908, -70.67760844296866 -13.10986736009567 M-70.67760844296866 -13.10986736009567 C-70.40447919981192 -13.391895727982906, -70.13134995665517 -13.673924095870143, -69.80799723676799 -14.007812326905677 M-70.67760844296866 -13.10986736009567 C-70.49117519467417 -13.30237499541407, -70.30474194637969 -13.49488263073247, -69.80799723676799 -14.007812326905677 M-69.80799723676799 -14.007812326905677 C-69.53212411259119 -14.258352999080167, -69.2562509884144 -14.508893671254656, -68.8826412085019 -14.848196188198107 M-69.80799723676799 -14.007812326905677 C-69.47369838522542 -14.31141369881372, -69.13939953368286 -14.615015070721764, -68.8826412085019 -14.848196188198107 M-68.8826412085019 -14.848196188198107 C-68.55812309999008 -15.106990743946726, -68.23360499147827 -15.365785299695345, -67.90534284457871 -15.627565626425149 M-68.8826412085019 -14.848196188198107 C-68.56150494132703 -15.104293815475085, -68.24036867415218 -15.360391442752064, -67.90534284457871 -15.627565626425149 M-67.90534284457871 -15.627565626425149 C-67.6993883541813 -15.771230563300191, -67.49343386378388 -15.914895500175236, -66.88011807360571 -16.342718045390885 M-67.90534284457871 -15.627565626425149 C-67.62156110712988 -15.825519481756034, -67.33777936968106 -16.02347333708692, -66.88011807360571 -16.342718045390885 M-66.88011807360571 -16.342718045390885 C-66.4795675504878 -16.58553412640111, -66.0790170273699 -16.82835020741134, -65.81117976407678 -16.99071473040609 M-66.88011807360571 -16.342718045390885 C-66.59519543773574 -16.515439821646524, -66.31027280186576 -16.688161597902162, -65.81117976407678 -16.99071473040609 M-65.81117976407678 -16.99071473040609 C-65.54749160078961 -17.12828067629268, -65.28380343750244 -17.265846622179264, -64.7029204127924 -17.56889292409717 M-65.81117976407678 -16.99071473040609 C-65.38393708215202 -17.213606963904244, -64.95669440022725 -17.4364991974024, -64.7029204127924 -17.56889292409717 M-64.7029204127924 -17.56889292409717 C-64.27573216445208 -17.75799648954828, -63.848543916111765 -17.94710005499939, -63.559894095147804 -18.07487676824742 M-64.7029204127924 -17.56889292409717 C-64.30385149576246 -17.745548895707504, -63.904782578732515 -17.922204867317838, -63.559894095147804 -18.07487676824742 M-63.559894095147804 -18.07487676824742 C-63.137995311102905 -18.23013942076555, -62.716096527058006 -18.385402073283682, -62.38679775146062 -18.506587066708033 M-63.559894095147804 -18.07487676824742 C-63.229069546951195 -18.196623260092373, -62.898244998754585 -18.318369751937325, -62.38679775146062 -18.506587066708033 M-62.38679775146062 -18.506587066708033 C-62.03499275949265 -18.611000941662038, -61.683187767524686 -18.715414816616043, -61.18845188623541 -18.862249829261067 M-62.38679775146062 -18.506587066708033 C-62.08226756076064 -18.596970028796196, -61.77773737006066 -18.68735299088436, -61.18845188623541 -18.862249829261067 M-61.18845188623541 -18.862249829261067 C-60.81886833908473 -18.946604862140177, -60.44928479193405 -19.030959895019283, -59.969780759676766 -19.140403561325773 M-61.18845188623541 -18.862249829261067 C-60.93725435338559 -18.919584026916944, -60.68605682053577 -18.976918224572824, -59.969780759676766 -19.140403561325773 M-59.969780759676766 -19.140403561325773 C-59.53308188781028 -19.211005648278814, -59.09638301594379 -19.28160773523186, -58.73579215284788 -19.3399052695533 M-59.969780759676766 -19.140403561325773 C-59.514816166626005 -19.213958708427107, -59.059851573575244 -19.287513855528438, -58.73579215284788 -19.3399052695533 M-58.73579215284788 -19.3399052695533 C-58.30063940472721 -19.381883931816752, -57.86548665660653 -19.423862594080205, -57.4915567896239 -19.45993515863156 M-58.73579215284788 -19.3399052695533 C-58.39803762801353 -19.37248804235482, -58.060283103179195 -19.405070815156343, -57.4915567896239 -19.45993515863156 M-57.4915567896239 -19.45993515863156 C-57.08322346842094 -19.473029613469944, -56.67489014721798 -19.486124068308328, -56.24218750000001 -19.5 M-57.4915567896239 -19.45993515863156 C-57.00976817913844 -19.475385181625185, -56.527979568652974 -19.490835204618815, -56.24218750000001 -19.5 M-56.24218750000001 -19.5 C-56.24218750000001 -19.5, -56.2421875 -19.5, -56.2421875 -19.5 M-56.24218750000001 -19.5 C-56.24218750000001 -19.5, -56.24218750000001 -19.5, -56.2421875 -19.5" stroke="#9370DB" stroke-width="1.3" fill="none" stroke-dasharray="0 0" style=""/></g><g class="label" style="" transform="translate(-63.3671875, -12)"><rect/><foreignObject width="126.734375" height="24"><div xmlns="http://www.w3.org/1999/xhtml" style="display: table-cell; white-space: nowrap; line-height: 1.5; max-width: 200px; text-align: center;"><span class="nodeLabel"><p>大まかなアイデア</p></span></div></foreignObject></g></g><g class="node default" id="my-svg-flowchart-ideation-1" data-look="classic" transform="translate(162.22265625, 148)"><rect class="basic label-container" style="" x="-78" y="-51" width="156" height="102"/><g class="label" style="" transform="translate(-48, -36)"><rect/><foreignObject width="96" height="72"><div xmlns="http://www.w3.org/1999/xhtml" style="display: table-cell; white-space: nowrap; line-height: 1.5; max-width: 200px; text-align: center;"><span class="nodeLabel"><p>/ideation<br />起草と思考<br />判定はしない</p></span></div></foreignObject></g></g><g class="node default" id="my-svg-flowchart-proposal-2" data-look="classic" transform="translate(162.22265625, 340.5)"><polygon points="0,0 215,0 215,-87 0,-87 0,0 -8,0 223,0 223,-87 -8,-87 -8,0" class="label-container" transform="translate(-107.5,43.5)"/><g class="label" style="" transform="translate(-100, -36)"><rect/><foreignObject width="200" height="72"><div xmlns="http://www.w3.org/1999/xhtml" style="display: table; white-space: break-spaces; line-height: 1.5; max-width: 200px; text-align: center; width: 200px;"><span class="nodeLabel"><p>roadmaps/BE-NNNN-&lt;slug&gt;/<br />Status: Proposal</p></span></div></foreignObject></g></g><g class="node default" id="my-svg-flowchart-implement-3" data-look="classic" transform="translate(162.22265625, 509)"><rect class="basic label-container" style="" x="-84.6015625" y="-51" width="169.203125" height="102"/><g class="label" style="" transform="translate(-54.6015625, -36)"><rect/><foreignObject width="109.203125" height="72"><div xmlns="http://www.w3.org/1999/xhtml" style="display: table-cell; white-space: nowrap; line-height: 1.5; max-width: 200px; text-align: center;"><span class="nodeLabel"><p>/implement-be<br />実装<br />ゲートが判定</p></span></div></foreignObject></g></g><g class="node default" id="my-svg-flowchart-implemented-4" data-look="classic" transform="translate(162.22265625, 749.5)"><polygon points="0,0 215,0 215,-87 0,-87 0,0 -8,0 223,0 223,-87 -8,-87 -8,0" class="label-container" transform="translate(-107.5,43.5)"/><g class="label" style="" transform="translate(-100, -36)"><rect/><foreignObject width="200" height="72"><div xmlns="http://www.w3.org/1999/xhtml" style="display: table; white-space: break-spaces; line-height: 1.5; max-width: 200px; text-align: center; width: 200px;"><span class="nodeLabel"><p>roadmaps/BE-NNNN-&lt;slug&gt;/<br />Status: Implemented</p></span></div></foreignObject></g></g></g></g></g><defs><filter id="my-svg-drop-shadow" height="130%" width="130%"><feDropShadow dx="4" dy="4" stdDeviation="0" flood-opacity="0.06" flood-color="#000000"/></filter></defs><defs><filter id="my-svg-drop-shadow-small" height="150%" width="150%"><feDropShadow dx="2" dy="2" stdDeviation="0" flood-opacity="0.06" flood-color="#000000"/></filter></defs></svg>